<svg width="23" height="23" viewBox="0 0 23 23" fill="none" xmlns="http://www.w3.org/2000/svg">
<path fill-rule="evenodd" clip-rule="evenodd" d="M6.69645 0.279623C7.86945 0.225623 8.24345 0.213623 11.2314 0.213623C14.2194 0.213623 14.5934 0.226623 15.7654 0.279623C16.9374 0.332623 17.7374 0.519623 18.4374 0.790623C19.1704 1.06762 19.8354 1.50062 20.3854 2.06062C20.9454 2.60962 21.3774 3.27362 21.6534 4.00762C21.9254 4.70762 22.1114 5.50762 22.1654 6.67762C22.2194 7.85262 22.2314 8.22662 22.2314 11.2136C22.2314 14.2016 22.2184 14.5756 22.1654 15.7486C22.1124 16.9186 21.9254 17.7186 21.6534 18.4186C21.3774 19.1527 20.9447 19.8178 20.3854 20.3676C19.8354 20.9276 19.1704 21.3596 18.4374 21.6356C17.7374 21.9076 16.9374 22.0936 15.7674 22.1476C14.5934 22.2016 14.2194 22.2136 11.2314 22.2136C8.24345 22.2136 7.86945 22.2006 6.69645 22.1476C5.52645 22.0946 4.72645 21.9076 4.02645 21.6356C3.29237 21.3596 2.62727 20.9269 2.07745 20.3676C1.51783 19.8183 1.08476 19.1535 0.808445 18.4196C0.537445 17.7196 0.351445 16.9196 0.297445 15.7496C0.243445 14.5746 0.231445 14.2006 0.231445 11.2136C0.231445 8.22562 0.244445 7.85162 0.297445 6.67962C0.350445 5.50762 0.537445 4.70762 0.808445 4.00762C1.08517 3.2737 1.51856 2.60894 2.07845 2.05962C2.62749 1.50012 3.29192 1.06707 4.02545 0.790623C4.72545 0.519623 5.52545 0.333623 6.69545 0.279623H6.69645ZM15.6764 2.25962C14.5164 2.20662 14.1684 2.19562 11.2314 2.19562C8.29445 2.19562 7.94644 2.20662 6.78645 2.25962C5.71345 2.30862 5.13145 2.48762 4.74345 2.63862C4.23045 2.83862 3.86345 3.07562 3.47845 3.46062C3.11349 3.81567 2.83263 4.24791 2.65645 4.72562C2.50545 5.11362 2.32645 5.69562 2.27745 6.76862C2.22445 7.92862 2.21345 8.27662 2.21345 11.2136C2.21345 14.1506 2.22445 14.4986 2.27745 15.6586C2.32645 16.7316 2.50545 17.3136 2.65645 17.7016C2.83245 18.1786 3.11345 18.6116 3.47845 18.9666C3.83345 19.3316 4.26645 19.6126 4.74345 19.7886C5.13145 19.9396 5.71345 20.1186 6.78645 20.1676C7.94644 20.2206 8.29345 20.2316 11.2314 20.2316C14.1694 20.2316 14.5164 20.2206 15.6764 20.1676C16.7494 20.1186 17.3314 19.9396 17.7194 19.7886C18.2324 19.5886 18.5994 19.3516 18.9844 18.9666C19.3494 18.6116 19.6304 18.1786 19.8064 17.7016C19.9574 17.3136 20.1364 16.7316 20.1854 15.6586C20.2384 14.4986 20.2494 14.1506 20.2494 11.2136C20.2494 8.27662 20.2384 7.92862 20.1854 6.76862C20.1364 5.69562 19.9574 5.11362 19.8064 4.72562C19.6064 4.21262 19.3694 3.84562 18.9844 3.46062C18.6294 3.09569 18.1971 2.81483 17.7194 2.63862C17.3314 2.48762 16.7494 2.30862 15.6764 2.25962ZM9.82645 14.6046C10.6111 14.9313 11.4848 14.9753 12.2984 14.7293C13.1119 14.4834 13.8148 13.9625 14.2871 13.2559C14.7593 12.5492 14.9715 11.7005 14.8875 10.8547C14.8035 10.009 14.4285 9.2186 13.8264 8.61862C13.4427 8.2351 12.9787 7.94144 12.4678 7.75877C11.9569 7.5761 11.4119 7.50898 10.8719 7.56224C10.332 7.61549 9.8106 7.7878 9.34525 8.06675C8.8799 8.34571 8.48219 8.72437 8.18075 9.17547C7.87931 9.62658 7.68163 10.1389 7.60196 10.6756C7.52229 11.2123 7.5626 11.7599 7.71999 12.2791C7.87737 12.7984 8.14793 13.2762 8.51217 13.6783C8.87641 14.0805 9.32527 14.3968 9.82645 14.6046ZM7.23345 7.21562C7.75847 6.6906 8.38177 6.27413 9.06774 5.98998C9.75372 5.70584 10.4889 5.5596 11.2314 5.5596C11.9739 5.5596 12.7092 5.70584 13.3951 5.98998C14.0811 6.27413 14.7044 6.6906 15.2294 7.21562C15.7545 7.74065 16.1709 8.36394 16.4551 9.04992C16.7392 9.7359 16.8855 10.4711 16.8855 11.2136C16.8855 11.9561 16.7392 12.6913 16.4551 13.3773C16.1709 14.0633 15.7545 14.6866 15.2294 15.2116C14.1691 16.272 12.731 16.8676 11.2314 16.8676C9.7319 16.8676 8.29378 16.272 7.23345 15.2116C6.17311 14.1513 5.57742 12.7132 5.57742 11.2136C5.57742 9.71408 6.17311 8.27596 7.23345 7.21562ZM18.1394 6.40162C18.2696 6.27889 18.3737 6.1313 18.4457 5.9676C18.5178 5.80389 18.5563 5.62739 18.5589 5.44855C18.5615 5.26971 18.5282 5.09217 18.4609 4.92643C18.3937 4.7607 18.2939 4.61013 18.1674 4.48366C18.0409 4.35719 17.8904 4.25738 17.7246 4.19014C17.5589 4.1229 17.3814 4.0896 17.2025 4.09221C17.0237 4.09481 16.8472 4.13328 16.6835 4.20532C16.5198 4.27736 16.3722 4.38152 16.2494 4.51162C16.0108 4.76465 15.8801 5.10074 15.8851 5.44855C15.8902 5.79636 16.0306 6.1285 16.2766 6.37447C16.5226 6.62043 16.8547 6.76085 17.2025 6.76592C17.5503 6.77099 17.8864 6.64031 18.1394 6.40162Z" fill="#57A0F5"/>
</svg>
