<svg width="32" height="31" viewBox="0 0 32 31" fill="none" xmlns="http://www.w3.org/2000/svg">
<path d="M31.4839 9.2643C31.4839 9.06486 31.4839 8.86541 31.3836 8.76569L27.8754 4.37798C27.6749 4.17853 27.3742 4.07881 27.1737 4.17853C26.4721 4.4777 25.6702 4.57742 24.8683 4.57742C22.5629 4.57742 20.4579 3.28105 19.5558 1.28663C19.4555 0.987467 19.2551 0.788025 19.0546 0.788025H13.4414C13.1407 0.788025 12.9402 0.887746 12.84 1.18691C12.0381 3.18133 9.93311 4.4777 7.62768 4.4777C6.82579 4.4777 6.12414 4.37798 5.42249 4.07881C5.22202 3.97909 4.82107 4.07881 4.72084 4.27825L1.0121 8.66597C0.911865 8.86541 0.911865 9.06486 0.911865 9.2643C0.911865 9.46374 1.0121 9.56346 1.21257 9.66318C3.71847 11.2587 5.32225 14.6492 5.32225 18.3389C5.32225 21.1311 4.42013 23.8235 2.71611 25.7182C2.61588 25.818 2.51564 26.0174 2.51564 26.2168C2.51564 26.4163 2.61588 26.516 2.81635 26.6157L7.72792 29.8068C8.02863 30.0062 8.2291 30.0062 8.52981 29.8068C9.33169 29.1087 10.4343 28.7099 11.7374 28.7099C13.4414 28.7099 15.0451 29.5076 15.6466 30.5048C15.7468 30.7043 15.9473 30.804 16.248 30.804C16.4485 30.804 16.7492 30.7043 16.8494 30.4051C17.4508 29.3082 18.9544 28.6101 20.6584 28.6101C21.8612 28.6101 23.064 29.009 23.8659 29.7071C24.0664 29.9065 24.3671 29.9065 24.6678 29.7071L29.5794 26.4163C29.7799 26.3166 29.8801 26.1171 29.8801 26.0174C29.8801 25.818 29.8801 25.6185 29.7799 25.5188C28.1761 23.6241 27.1737 21.0314 27.1737 18.1395C27.1737 14.4498 28.7775 11.0593 31.2834 9.46374C31.3836 9.56346 31.4839 9.36402 31.4839 9.2643ZM29.6796 9.16458C27.2739 11.159 25.7704 14.5495 25.7704 18.3389C25.7704 21.0314 26.5723 23.7238 27.9756 25.7182L28.1761 26.0174L24.2669 28.6101L24.0664 28.5104C23.064 27.9121 21.8612 27.5132 20.5581 27.5132C18.8541 27.5132 17.3506 28.0118 16.3482 29.009L16.1477 29.2085L15.9473 28.9093C14.9449 27.9121 13.4414 27.4135 11.7374 27.4135C10.4343 27.4135 9.13122 27.7127 8.12886 28.4107L7.92839 28.5104L4.01918 25.9177L4.31989 25.7182C5.7232 23.7238 6.52508 21.1311 6.52508 18.3389C6.52508 14.6492 5.12178 11.159 2.61588 9.16458L2.41541 8.96513L5.22202 5.47491L5.42249 5.57463C6.12414 5.67435 6.82579 5.77407 7.52744 5.77407C10.2338 5.77407 12.5392 4.37798 13.7421 2.18412L13.8423 1.98468H18.4532L18.5534 2.18412C19.7562 4.4777 22.1619 5.77407 24.768 5.77407C25.4697 5.77407 26.1714 5.67435 26.873 5.47491L27.0735 5.37518L29.8801 8.86541L29.6796 9.16458Z" fill="#ED3237"/>
</svg>
