<svg width="33" height="33" viewBox="0 0 33 33" fill="none" xmlns="http://www.w3.org/2000/svg">
<path d="M14.0885 0.980194C13.7872 0.980194 13.5863 1.18104 13.4859 1.38193L12.4814 4.89744C11.6779 5.09832 10.9748 5.39968 10.2717 5.80145L7.15795 4.0939C6.95706 3.99346 6.65573 3.99344 6.45485 4.19432L3.44156 7.20761C3.24067 7.4085 3.24067 7.70984 3.34111 7.91073L5.04864 11.0245C4.64687 11.7276 4.34554 12.4307 4.14466 13.2342L0.729592 14.2386C0.528706 14.3391 0.32782 14.54 0.32782 14.8413V19.1604C0.32782 19.4617 0.528706 19.6626 0.729592 19.763L4.14466 20.7674C4.34554 21.571 4.74731 22.2741 5.04864 22.9772L3.34111 26.091C3.24067 26.2918 3.24067 26.5931 3.44156 26.794L6.45485 29.8073C6.65573 30.0082 6.95706 30.0082 7.15795 29.9078L10.2717 28.2002C10.9748 28.602 11.6779 28.9034 12.4814 29.1042L13.4859 32.5193C13.5863 32.8206 13.7872 32.921 14.0885 32.921H18.3071C18.6085 32.921 18.8093 32.7202 18.9098 32.5193L19.9142 29.1042C20.7178 28.9034 21.4209 28.602 22.124 28.2002L25.2377 29.9078C25.4386 30.0082 25.7399 30.0082 25.9408 29.8073L28.9541 26.794C29.155 26.5931 29.155 26.2918 29.0545 26.091L27.347 22.9772C27.7488 22.2741 28.0501 21.571 28.251 20.7674L31.6661 19.763C31.8669 19.6626 32.0678 19.4617 32.0678 19.1604V14.8413C32.0678 14.54 31.8669 14.3391 31.6661 14.2386L28.251 13.2342C28.0501 12.4307 27.7488 11.7276 27.347 11.0245L29.0545 7.91073C29.155 7.70984 29.155 7.4085 28.9541 7.20761L25.9408 4.19432C25.7399 3.99344 25.4386 3.99346 25.2377 4.0939L22.124 5.80145C21.4209 5.39968 20.7178 5.09832 19.9142 4.89744L18.9098 1.38193C18.8093 1.18104 18.6085 0.980194 18.3071 0.980194H14.0885ZM14.4903 2.08504H17.9054L18.8093 5.39965C18.9098 5.60054 19.0102 5.80145 19.2111 5.80145C20.1151 6.10278 21.0191 6.40408 21.8226 6.9063C22.0235 7.00674 22.2244 7.00674 22.4253 6.9063L25.4386 5.19875L27.8492 7.60941L26.1417 10.6227C26.0412 10.8236 26.0412 11.0244 26.1417 11.2253C26.6439 12.0289 26.9452 12.9329 27.2466 13.8369C27.347 14.0378 27.4474 14.2386 27.6483 14.2386L30.963 15.1426V18.5577L27.6483 19.4617C27.4474 19.5621 27.2466 19.6626 27.2466 19.8635C26.9452 20.7675 26.6439 21.6714 26.1417 22.475C26.0412 22.6759 26.0412 22.8768 26.1417 23.0777L27.8492 26.091L25.4386 28.5016L22.4253 26.794C22.2244 26.6936 22.0235 26.6936 21.8226 26.794C21.0191 27.2962 20.1151 27.5976 19.2111 27.8989C19.0102 27.9994 18.8093 28.0998 18.8093 28.3007L17.9054 31.6153H14.4903L13.5863 28.3007C13.4859 28.0998 13.3854 27.8989 13.1845 27.8989C12.2805 27.5976 11.3766 27.2962 10.573 26.794C10.3721 26.6936 10.1712 26.6936 9.97035 26.794L6.95706 28.5016L4.54643 26.091L6.25396 23.0777C6.3544 22.8768 6.3544 22.6759 6.25396 22.475C5.75175 21.6714 5.45042 20.7675 5.14909 19.8635C5.04864 19.6626 4.9482 19.4617 4.74731 19.4617L1.43269 18.5577V15.1426L4.74731 14.2386C4.9482 14.1382 5.14909 14.0378 5.14909 13.8369C5.45042 12.9329 5.75175 12.0289 6.25396 11.2253C6.3544 11.0244 6.3544 10.8236 6.25396 10.6227L4.54643 7.60941L6.95706 5.19875L9.97035 6.9063C10.1712 7.00674 10.3721 7.00674 10.573 6.9063C11.3766 6.40408 12.2805 6.10278 13.1845 5.80145C13.3854 5.70101 13.5863 5.60054 13.5863 5.39965L14.4903 2.08504ZM16.1978 11.0245C12.9836 11.0245 10.2717 13.636 10.2717 16.9506C10.2717 20.2652 12.8832 22.8768 16.1978 22.8768C19.5124 22.8768 22.124 20.2652 22.124 16.9506C22.124 13.636 19.412 11.0245 16.1978 11.0245ZM16.1978 12.1293C18.8093 12.1293 20.9186 14.2387 20.9186 16.8502C20.9186 19.4617 18.8093 21.571 16.1978 21.571C13.5863 21.571 11.477 19.4617 11.477 16.8502C11.477 14.2387 13.5863 12.1293 16.1978 12.1293Z" fill="#ED3237"/>
</svg>
