<svg width="30" height="33" viewBox="0 0 30 33" fill="none" xmlns="http://www.w3.org/2000/svg">
<path d="M15.0988 29.1313C14.6038 29.1313 14.2079 29.0311 13.8119 28.931C12.723 28.6305 11.931 28.0295 11.931 28.0295C11.931 28.0295 11.3371 27.5287 10.4461 27.3284C9.25819 27.0279 8.16926 27.3284 7.08033 28.0295C6.88235 28.1297 6.68436 28.33 6.48637 28.4302L5.9914 28.7307L1.73468 18.4139L15.1978 14.207L28.5619 18.4139L24.3052 28.7307L23.8102 28.4302C23.4143 28.2298 23.2163 28.0295 23.1173 28.0295C23.1173 28.0295 22.5233 27.5287 21.6324 27.3284C20.4445 27.0279 19.3555 27.3284 18.2666 28.0295C17.0787 28.8308 15.9898 29.1313 15.0988 29.1313ZM9.55517 26.1264C10.0501 26.1264 10.4461 26.2266 10.8421 26.3267C11.931 26.6272 12.723 27.2282 12.723 27.2282C12.723 27.2282 13.3169 27.729 14.2079 27.9294C15.3958 28.2298 16.4847 27.9294 17.5737 27.2282C19.2565 26.0263 20.8404 26.1264 21.9294 26.3267C22.9193 26.6272 23.6123 27.0279 23.7113 27.2282L26.978 19.2152L15.0988 15.5091L3.21958 19.115L6.48637 27.1281C7.5753 26.3267 8.66423 26.1264 9.55517 26.1264Z" fill="#ED3237"/>
<path d="M28.0669 19.4155L15.0988 15.3088L2.13062 19.4155L0.645717 15.9098C0.546724 15.7095 0.546724 15.5091 0.645717 15.3088C0.744711 15.1085 0.942698 14.9082 1.14069 14.9082L15.1978 10.2005L29.2549 14.9082C29.4528 15.0083 29.6508 15.1085 29.7498 15.3088C29.8488 15.5091 29.8488 15.7095 29.7498 15.9098L28.0669 19.4155ZM1.73465 15.8096L2.72458 18.1134L15.0988 14.207L27.473 18.1134L28.4629 15.8096L15.0988 11.4025L1.73465 15.8096Z" fill="#ED3237"/>
<path d="M3.91254 15.1084L5.00147 5.89344C5.10046 5.1923 5.69442 4.59132 6.38738 4.59132H23.8102C24.5032 4.59132 25.1962 5.1923 25.1962 5.89344L26.2851 15.1084L15.0988 11.4024L3.91254 15.1084ZM6.38738 5.79328C6.18939 5.79328 6.0904 5.89344 6.0904 6.09377L5.19945 13.5058L15.0988 10.2005L24.9982 13.5058L24.2062 6.09377C24.2062 5.89344 24.0082 5.79328 23.9092 5.79328H6.38738Z" fill="#ED3237"/>
<path d="M17.1777 5.79328H13.02V0.885289C13.02 0.484637 13.4159 0.0839844 13.8119 0.0839844H16.3857C16.7817 0.0839844 17.1777 0.484637 17.1777 0.885289V5.79328ZM14.1089 4.59132H16.0888V1.18578H14.1089V4.59132Z" fill="#ED3237"/>
<path d="M26.2851 29.1313C26.1861 29.1313 26.1861 29.1313 26.0871 29.1313C25.0972 29.1313 24.3052 28.7306 23.8103 28.5303C23.4143 28.33 23.2163 28.1296 23.1173 28.1296C23.1173 28.1296 22.5233 27.6288 21.6324 27.4285C20.4445 27.128 19.3556 27.4285 18.2666 28.1296C16.5837 29.3316 14.9998 29.2314 13.9109 29.0311C12.822 28.7306 12.03 28.1296 12.03 28.1296C12.03 28.1296 11.4361 27.6288 10.5451 27.4285C9.3572 27.128 8.26827 27.4285 7.17934 28.1296C6.98136 28.2298 6.78337 28.4301 6.58538 28.5303C5.00148 29.4318 3.61558 29.2314 2.62564 28.9309C1.6357 28.6305 1.04174 28.1296 0.942749 28.1296L1.6357 27.128C1.6357 27.128 2.13067 27.5287 2.92262 27.729C4.01155 28.0295 5.00148 27.9293 5.99142 27.3283C6.18941 27.3283 6.2884 27.2282 6.48639 27.128C8.16928 25.9261 9.75318 26.0262 10.8421 26.2265C11.931 26.527 12.723 27.128 12.723 27.128C12.723 27.128 13.3169 27.6288 14.2079 27.8292C15.3958 28.1296 16.4847 27.8292 17.5737 27.128C19.2566 25.9261 20.8405 26.0262 21.9294 26.2265C23.0183 26.527 23.7113 27.0279 23.8103 27.128C23.8103 27.128 24.0082 27.2282 24.3052 27.4285C25.0972 27.8292 26.7801 28.4301 28.7599 27.128L29.3539 28.0295C28.364 28.7306 27.275 29.1313 26.2851 29.1313Z" fill="#ED3237"/>
<path d="M15.0988 32.9375C14.6038 32.9375 14.2079 32.8373 13.8119 32.7372C12.723 32.4367 11.931 31.8357 11.931 31.8357C11.931 31.8357 11.337 31.3349 10.4461 31.1346C9.25818 30.8341 8.16925 31.1346 7.08032 31.8357C6.88234 32.036 6.68435 32.1362 6.48636 32.2364L5.99139 31.2347C6.18938 31.1346 6.28837 31.0344 6.48636 30.9342C8.16925 29.7323 9.75315 29.8325 10.8421 30.0328C11.931 30.3333 12.723 30.9342 12.723 30.9342C12.723 30.9342 13.3169 31.4351 14.2079 31.6354C15.3958 31.9359 16.4847 31.6354 17.5736 30.9342C19.2565 29.7323 20.8404 29.8325 21.9294 30.0328C23.0183 30.3333 23.7112 30.8341 23.8102 30.9342C23.8102 30.9342 24.0082 31.0344 24.3052 31.2347L23.8102 32.2364C23.4143 32.036 23.2163 31.8357 23.1173 31.8357C23.1173 31.8357 22.5233 31.3349 21.6324 31.1346C20.4445 30.8341 19.3555 31.1346 18.2666 31.8357C17.0787 32.637 15.9897 32.9375 15.0988 32.9375Z" fill="#ED3237"/>
<path d="M15.6927 14.8079H14.6038V28.2298H15.6927V14.8079Z" fill="#ED3237"/>
</svg>
