<svg width="101" height="34" viewBox="0 0 101 34" fill="none" xmlns="http://www.w3.org/2000/svg">
<g clip-path="url(#clip0)">
<path d="M42.7447 29.229C42.3936 29.5781 41.9986 29.9272 41.5597 30.189C40.8574 30.5818 40.0674 30.8 39.3213 30.8C38.7068 30.8 38.0923 30.6691 37.5656 30.4509C37.0389 30.189 36.5561 29.8836 36.1611 29.4908C35.7661 29.098 35.415 28.618 35.1955 28.0943C34.9761 27.5706 34.8444 27.0033 34.8444 26.436C34.8444 25.825 34.9761 25.2141 35.2394 24.6904C35.5028 24.1231 35.81 23.643 36.2489 23.2503C36.6439 22.8575 37.1267 22.552 37.6973 22.2902C38.224 22.072 38.7946 21.9411 39.409 21.9411C39.8041 21.9411 40.1991 21.9847 40.5941 22.1156C40.9452 22.2029 41.2963 22.3775 41.6036 22.552C41.823 22.683 42.0425 22.8139 42.2619 22.9884C42.4375 23.163 42.6569 23.2939 42.7886 23.5121C43.1397 23.9049 43.6664 24.1231 44.237 24.1231H45.5976C45.3782 23.5121 45.0709 22.9448 44.6759 22.4648C44.2809 21.9411 43.7981 21.461 43.2275 21.0683C43.0959 20.981 43.0081 20.9374 42.8764 20.8501L42.8325 20.8064C42.7886 20.7628 42.7447 20.7628 42.6569 20.7192C42.2619 20.501 41.8669 20.3264 41.428 20.1518C40.7696 19.9336 40.0674 19.8027 39.3651 19.8027C39.3651 19.8027 39.3651 19.8027 39.3213 19.8027C38.4434 19.8027 37.5656 19.9773 36.7756 20.3264C36.6 20.4137 36.4245 20.501 36.2489 20.5882C35.6344 20.8937 35.1078 21.3301 34.625 21.7665C34.0105 22.3775 33.5277 23.0757 33.1766 23.9049C32.8254 24.6904 32.6499 25.5632 32.6499 26.436C32.6499 27.3524 32.8254 28.1816 33.1766 28.9671C33.5277 29.7526 34.0105 30.4509 34.625 31.0618C35.2394 31.6292 35.9417 32.1092 36.7317 32.4583C37.5217 32.8074 38.3557 32.982 39.2774 32.982C39.9796 32.982 40.6819 32.8511 41.3402 32.6765C41.9986 32.4583 42.6131 32.1528 43.1836 31.7601C43.7542 31.3673 44.237 30.8873 44.632 30.3636C45.027 29.8399 45.3343 29.2726 45.5537 28.7053H44.1931C43.6225 28.618 43.0959 28.8362 42.7447 29.229Z" fill="#57A0F5"/>
<path d="M58.2382 28.7924C57.931 28.7052 56.6143 28.356 55.6487 29.4034C55.4731 29.6216 55.2098 29.8834 54.9464 30.058C54.5953 30.3198 54.2003 30.4944 53.8053 30.669C53.3663 30.8435 52.9274 30.9308 52.4008 30.9308C52.0057 30.9308 51.6107 30.8872 51.2157 30.7562C50.8646 30.669 50.5135 30.4944 50.2501 30.3198C49.9429 30.1453 49.7234 29.9271 49.5479 29.6652C49.3723 29.4034 49.2845 29.0979 49.2845 28.7924C49.2845 28.4433 49.4162 28.1378 49.5918 27.9196C49.7673 27.6578 50.0307 27.4832 50.3379 27.3087C50.6451 27.1341 50.9524 27.0468 51.3035 26.9596C51.6546 26.9159 51.9618 26.8723 52.2691 26.8723C52.6641 26.8723 53.0591 26.9159 53.4541 26.9596C53.8491 27.0468 54.2442 27.0905 54.5953 27.1778C54.9464 27.265 55.2536 27.3087 55.517 27.396C56.2192 27.6142 57.3165 27.6142 57.7993 27.265C58.0188 27.0905 58.2382 26.8723 58.2821 26.4359V25.3012V25.083C58.2821 24.123 58.1065 23.2938 57.7993 22.6392C57.4921 21.9846 57.0971 21.4173 56.6143 20.9809C56.1315 20.5445 55.5609 20.239 54.9025 20.0208C54.2442 19.8026 53.5419 19.7153 52.7958 19.7153C52.1813 19.7153 51.5229 19.8026 50.9524 19.9772C50.3379 20.1517 49.8112 20.4136 49.3284 20.8063C48.8456 21.1554 48.4506 21.6355 48.1434 22.1592C47.8361 22.6828 47.6606 23.3811 47.6167 24.0793H48.4945C49.1528 24.0793 49.5917 23.7302 49.7673 23.4684C49.9429 23.2502 50.3818 22.5956 50.8646 22.2901C51.1718 22.1155 51.479 21.941 51.8741 21.8537C52.6202 21.6791 53.4102 21.6791 54.1564 21.8973C54.5514 22.0282 54.8586 22.2028 55.1659 22.421C55.4731 22.6392 55.6926 22.9447 55.912 23.2938C56.0876 23.6429 56.1754 24.0793 56.1754 24.5157C56.1754 24.9958 56.1315 25.4322 56.1315 25.4322L55.9998 25.3885C55.2975 25.1703 54.5953 24.9958 53.893 24.9085C53.1908 24.8212 52.5763 24.7776 51.9618 24.7776C51.2596 24.7776 50.6451 24.8648 50.0745 24.9958C49.504 25.1267 48.9773 25.3885 48.5823 25.694C48.1434 25.9995 47.8361 26.4359 47.5728 26.9596C47.3533 27.4832 47.2217 28.0942 47.2217 28.7924C47.2217 29.4907 47.3533 30.1016 47.6606 30.6253C47.9239 31.149 48.3189 31.5854 48.8017 31.9345C49.2845 32.2836 49.8112 32.5455 50.3818 32.72C51.6985 33.1128 53.0152 33.0692 54.2442 32.6328C54.9025 32.3709 55.517 31.9782 55.9998 31.3672L56.1754 31.1926V31.5418C56.1754 32.1527 56.702 32.6764 57.3165 32.6764H58.326V32.2836C58.326 32.1527 58.326 32.0218 58.326 31.8909V28.7924H58.2382Z" fill="#57A0F5"/>
<path d="M31.0702 28.7924C30.763 28.7052 29.4463 28.356 28.4807 29.4034C28.3051 29.6216 28.0418 29.8834 27.7784 30.058C27.4273 30.3198 27.0323 30.4944 26.6373 30.669C26.1984 30.8435 25.7595 30.9308 25.2328 30.9308C24.8378 30.9308 24.4427 30.8872 24.0477 30.7562C23.6966 30.669 23.3455 30.4944 23.0821 30.3198C22.7749 30.1453 22.5555 29.9271 22.3799 29.6652C22.2043 29.4034 22.1165 29.0979 22.1165 28.7924C22.1165 28.4433 22.2482 28.1378 22.4238 27.9196C22.5993 27.6578 22.8627 27.4832 23.1699 27.3087C23.4772 27.1341 23.7844 27.0468 24.1355 26.9596C24.4866 26.9159 24.7939 26.8723 25.1011 26.8723C25.4961 26.8723 25.8911 26.9159 26.2862 26.9596C26.6812 27.0468 27.0762 27.0905 27.4273 27.1778C27.7784 27.265 28.0857 27.3087 28.349 27.396C29.0513 27.6142 30.1485 27.6142 30.6313 27.265C30.8508 27.0905 31.0702 26.8723 31.1141 26.4359V25.3012V25.083C31.1141 24.123 30.9386 23.2938 30.6313 22.6392C30.3241 21.9846 29.9291 21.4173 29.4463 20.9809C28.9635 20.5445 28.3929 20.239 27.7345 20.0208C27.0762 19.8026 26.3739 19.7153 25.6278 19.7153C25.0133 19.7153 24.355 19.8026 23.7844 19.9772C23.1699 20.1517 22.6432 20.4136 22.1604 20.8063C21.6776 21.1554 21.2826 21.6355 20.9754 22.1592C20.6682 22.6828 20.4926 23.3811 20.4487 24.0793H21.3265C21.9849 24.0793 22.4238 23.7302 22.5993 23.4684C22.7749 23.2502 23.2138 22.5956 23.6966 22.2901C24.0038 22.1155 24.3111 21.941 24.7061 21.8537C25.4522 21.6791 26.2423 21.6791 26.9884 21.8973C27.3834 22.0282 27.6907 22.2028 27.9979 22.421C28.3051 22.6392 28.5246 22.9447 28.744 23.2938C28.9196 23.6429 29.0074 24.0793 29.0074 24.5157C29.0074 24.9958 28.9635 25.4322 28.9635 25.4322L28.8318 25.3885C28.1296 25.1703 27.4273 24.9958 26.7251 24.9085C26.0228 24.8212 25.4083 24.7776 24.7939 24.7776C24.0916 24.7776 23.4772 24.8648 22.9066 24.9958C22.336 25.1267 21.8093 25.3885 21.4143 25.694C20.9754 25.9995 20.6682 26.4359 20.4048 26.9596C20.1854 27.4832 20.0537 28.0942 20.0537 28.7924C20.0537 29.4907 20.1854 30.1016 20.4926 30.6253C20.7559 31.149 21.151 31.5854 21.6337 31.9345C22.1165 32.2836 22.6432 32.5455 23.2138 32.72C24.5305 33.1128 25.8473 33.0692 27.0762 32.6328C27.7345 32.3709 28.349 31.9782 28.8318 31.3672L29.0074 31.1926V31.5418C29.0074 32.1527 29.5341 32.6764 30.1485 32.6764H31.158V32.2836C31.158 32.1527 31.158 32.0218 31.158 31.8909V28.7924H31.0702Z" fill="#57A0F5"/>
<path d="M18.3857 26.3485C18.3857 22.1154 16.7178 19.9771 13.2943 19.8898C12.1971 19.8461 10.5292 20.1516 9.21253 21.4608L9.12475 21.5481L9.08086 21.4608C8.86141 21.1553 8.55417 20.9371 8.24694 20.6753C7.06189 19.7152 4.51624 19.497 2.93618 20.2389C1.40001 20.9808 0.785532 22.4645 0.609969 23.2501C0.390516 24.0792 0.302734 25.0829 0.302734 26.2176V30.6252C0.302734 31.8035 1.22444 32.7636 2.40949 32.8072V24.9084C2.40949 23.2937 3.7262 21.9409 5.39405 21.9409C7.018 21.9409 8.37862 23.2501 8.37862 24.9084V30.5816C8.37862 31.7598 9.30031 32.7199 10.4853 32.7636V24.8211C10.4853 23.2501 11.7582 21.9409 13.3821 21.9409C15.0061 21.9409 16.2789 23.2064 16.2789 24.8211V30.6252C16.2789 31.8035 17.2445 32.8072 18.4295 32.8508C18.3857 32.1526 18.3857 27.5704 18.3857 26.3485Z" fill="#57A0F5"/>
<path d="M59.8184 26.3051C59.8184 30.5382 61.4863 32.6765 64.9097 32.7638C66.007 32.8074 67.6749 32.502 68.9916 31.1928L69.0794 31.1055L69.1671 31.1928C69.3866 31.4982 69.6938 31.7164 70.0011 31.9783C71.1861 32.9384 73.7318 33.1566 75.3118 32.4147C76.848 31.6728 77.4625 30.189 77.638 29.4035C77.8136 28.5744 77.9453 27.6143 77.9453 26.436V22.0284C77.9453 20.8501 77.0236 19.89 75.8385 19.8464V27.7452C75.8385 29.3599 74.5218 30.7127 72.854 30.7127C71.23 30.7127 69.8694 29.4035 69.8694 27.7452V22.072C69.8694 20.8937 68.9477 19.9336 67.7626 19.89V27.8325C67.7626 29.4035 66.4898 30.7127 64.8659 30.7127C63.2858 30.7127 61.9691 29.4472 61.9691 27.8325V22.0284C61.9691 20.8501 61.0035 19.8464 59.8184 19.8027C59.8184 20.501 59.8184 25.0832 59.8184 26.3051Z" fill="#57A0F5"/>
<path d="M100.154 1.34303C100.11 1.12483 99.9343 0.950269 99.7149 0.906629C99.4954 0.862989 99.276 0.950269 99.1443 1.12483C95.5014 6.57983 86.8549 8.23815 86.7671 8.28179C85.4943 8.49999 84.3531 8.93639 84.3093 8.98003C81.9392 9.9401 80.3152 15.3951 79.7446 17.708C78.1646 16.006 77.0234 13.8677 76.4528 11.5984C76.4967 11.4675 76.5406 11.3366 76.4967 11.2057C76.4089 10.9438 76.1017 10.7693 75.7945 10.8565C75.3556 10.9875 74.9167 10.9875 74.5216 10.7693C74.6094 10.4638 74.785 10.2019 75.0483 9.98374C75.2239 9.85282 75.2678 9.59098 75.18 9.37278L74.1266 6.75439C74.785 6.40527 75.4434 6.31799 76.1456 6.44891C78.5157 6.88531 80.4469 9.76554 80.4469 9.80918C80.5347 9.98374 80.7102 10.071 80.8858 10.071C80.9736 10.071 81.1052 10.0274 81.193 9.98374C81.4564 9.80918 81.5003 9.50371 81.3686 9.24187C81.2808 9.11095 79.1741 5.92523 76.3651 5.40155C75.2678 5.18335 74.2144 5.40155 73.2488 6.01251C73.2049 6.01251 73.161 6.05615 73.1171 6.05615C73.0733 6.09979 73.0294 6.09979 73.0294 6.14343C73.0294 6.14343 72.9855 6.14343 72.9855 6.18707C72.9855 6.18707 72.9855 6.23071 72.9416 6.23071C72.0638 6.92895 71.5371 8.01995 71.5371 9.19823C71.5371 10.682 72.371 12.0348 73.7316 12.6458C73.8194 12.6894 73.8633 12.6894 73.9511 12.6894C74.0827 12.6894 74.2144 12.6458 74.3022 12.5585C74.4778 12.4276 74.5216 12.2094 74.4778 11.9912C74.4778 11.9475 74.4778 11.9039 74.4339 11.8603C74.6972 11.9475 74.9606 11.9912 75.2239 11.9912C75.2678 11.9912 75.3556 11.9912 75.3995 11.9912C76.5406 16.5297 80.008 20.4573 84.2654 22.072C85.1871 24.4722 86.5038 26.8724 87.7766 29.1853C87.9083 29.4472 88.04 29.6654 88.1716 29.9272C85.9332 27.8761 83.7387 24.865 82.3342 22.4648C82.2025 22.2029 81.8514 22.1156 81.588 22.2466C81.3247 22.3775 81.2369 22.7266 81.3686 22.9884C83.2998 26.3487 86.5916 30.5382 89.5322 32.371C89.62 32.4147 89.7078 32.4583 89.8395 32.4583C89.9712 32.4583 90.1028 32.4147 90.1906 32.3274C90.3662 32.1528 90.4101 31.891 90.3223 31.6728C89.7956 30.6691 89.2689 29.6654 88.7422 28.6616C87.4694 26.3051 86.1527 23.9049 85.231 21.5047C85.231 21.461 85.1871 21.461 85.1871 21.4174C85.1871 19.89 85.0993 18.5808 84.836 17.3589C85.2749 17.2716 85.7138 17.228 86.021 17.228C90.6295 17.228 94.3602 13.7804 94.5358 13.6495C101.427 7.67083 100.198 1.60487 100.154 1.34303ZM72.6344 9.24187C72.6344 8.58727 72.8538 7.97631 73.2488 7.49627L74.0388 9.50371C73.6877 9.89646 73.4683 10.3765 73.3805 10.9002C73.3805 10.9438 73.3805 10.9438 73.3805 10.9875C73.3805 11.0311 73.3366 11.0747 73.3366 11.1184C72.8977 10.5947 72.6344 9.9401 72.6344 9.24187ZM84.0898 20.8937C82.9048 20.37 81.8075 19.6282 80.798 18.799C81.4125 18.319 82.5975 17.9262 83.7387 17.6644C84.002 18.6244 84.0898 19.6718 84.0898 20.8937ZM93.7896 12.9513C93.7458 12.9949 90.2345 16.2679 86.021 16.2679C85.626 16.2679 84.9237 16.3552 84.0898 16.5297C83.0803 16.7479 81.8953 17.0534 80.9297 17.4898C81.7636 14.4786 83.212 10.5947 84.7482 9.98374C84.7482 9.98374 85.8015 9.54734 86.9427 9.37278C89.0933 9.02366 95.5453 7.10351 99.1443 2.91407C99.1443 4.92151 98.3982 8.89275 93.7896 12.9513Z" fill="#57A0F5"/>
</g>
<defs>
<clipPath id="clip0">
<rect width="100" height="33" fill="white" transform="translate(0.265625 0.895508)"/>
</clipPath>
</defs>
</svg>
