<svg width="21" height="25" viewBox="0 0 21 25" fill="none" xmlns="http://www.w3.org/2000/svg">
<path d="M19.0531 10.8604C19.0531 17.8604 10.0531 23.8604 10.0531 23.8604C10.0531 23.8604 1.0531 17.8604 1.0531 10.8604C1.0531 8.4734 2.00131 6.18422 3.68914 4.49639C5.37697 2.80856 7.66615 1.86035 10.0531 1.86035C12.44 1.86035 14.7292 2.80856 16.4171 4.49639C18.1049 6.18422 19.0531 8.4734 19.0531 10.8604Z" stroke="#57A0F5" stroke-width="2" stroke-linecap="round" stroke-linejoin="round"/>
<path d="M10.0531 13.8604C11.71 13.8604 13.0531 12.5172 13.0531 10.8604C13.0531 9.2035 11.71 7.86035 10.0531 7.86035C8.39625 7.86035 7.0531 9.2035 7.0531 10.8604C7.0531 12.5172 8.39625 13.8604 10.0531 13.8604Z" stroke="#57A0F5" stroke-width="2" stroke-linecap="round" stroke-linejoin="round"/>
</svg>
