<svg width="19" height="19" viewBox="0 0 19 19" fill="none" xmlns="http://www.w3.org/2000/svg">
<path d="M2.98292 4.41067C4.19132 4.41067 5.17092 3.43107 5.17092 2.22267C5.17092 1.01427 4.19132 0.034668 2.98292 0.034668C1.77452 0.034668 0.794922 1.01427 0.794922 2.22267C0.794922 3.43107 1.77452 4.41067 2.98292 4.41067Z" fill="#57A0F5"/>
<path d="M7.23673 6.06855V18.2076H11.0057V12.2046C11.0057 10.6206 11.3037 9.08655 13.2677 9.08655C15.2047 9.08655 15.2287 10.8976 15.2287 12.3046V18.2086H18.9997V11.5516C18.9997 8.28155 18.2957 5.76855 14.4737 5.76855C12.6387 5.76855 11.4087 6.77555 10.9057 7.72855H10.8547V6.06855H7.23673ZM1.09473 6.06855H4.86973V18.2076H1.09473V6.06855Z" fill="#57A0F5"/>
</svg>
