<svg width="176" height="89" viewBox="0 0 176 89" fill="none" xmlns="http://www.w3.org/2000/svg">
<path fill-rule="evenodd" clip-rule="evenodd" d="M37.4971 24.4591H48.9093L87.9628 5.63636L127.016 24.4591H138.428L88.4074 0.300781H87.444L37.4971 24.4591ZM115.604 24.4591H104.192L87.8886 16.6039L71.5114 24.4591H60.0992L87.8886 11.046L115.604 24.4591Z" fill="#ED3237"/>
<path fill-rule="evenodd" clip-rule="evenodd" d="M37.4971 63.8831H48.9093L87.9628 82.7058L127.016 63.8831H138.428L88.4815 88.0414H87.444L37.4971 63.8831ZM115.604 63.8831H104.192L87.8886 71.7382L71.5114 63.8831H60.0992L87.8886 77.2961L115.604 63.8831Z" fill="#ED3237"/>
<path fill-rule="evenodd" clip-rule="evenodd" d="M15.562 29.4242H21.0457V48.6916H16.0066L5.70596 37.724V48.6175H0.222168V29.3501H5.26133L15.562 40.3918V29.4242Z" fill="white"/>
<path fill-rule="evenodd" clip-rule="evenodd" d="M31.9394 29.4241H38.3866L46.6864 48.6914H41.2026L39.5723 44.9121H30.7538L29.1234 48.6914H23.6396L31.9394 29.4241ZM38.0161 41.355L35.126 34.6114L32.2359 41.355H38.0161Z" fill="white"/>
<path fill-rule="evenodd" clip-rule="evenodd" d="M49.6504 29.4241H59.1359C63.8786 29.7205 66.1018 31.5731 66.1018 35.3525C66.0277 40.4658 62.5447 41.355 57.8761 41.355H55.3565V48.6914H49.6504V29.4241ZM55.3565 32.8329V37.8721H57.8761C59.6546 37.8721 60.6921 36.9828 60.7662 35.4266C60.8403 34.0186 59.951 32.907 57.8761 32.8329H55.3565Z" fill="white"/>
<path fill-rule="evenodd" clip-rule="evenodd" d="M94.188 29.4241H99.8941V44.171H108.935V48.6914H94.188V29.4241Z" fill="white"/>
<path fill-rule="evenodd" clip-rule="evenodd" d="M112.344 29.4241H126.424V33.3517H117.976V36.6123H126.201V40.5399H117.976V44.6898H126.72V48.6173H112.27V29.4241H112.344Z" fill="white"/>
<path fill-rule="evenodd" clip-rule="evenodd" d="M170.294 29.4241H175.778V48.6914H170.739L160.438 37.798V48.6914H154.954V29.4241H159.993L170.294 40.4658V29.4241Z" fill="white"/>
<path fill-rule="evenodd" clip-rule="evenodd" d="M79.3669 28.9055C85.3695 28.9055 90.1122 32.759 90.2604 38.9097C90.4086 45.0605 85.3695 48.9139 79.3669 48.9139C73.3644 48.9139 68.5476 45.5792 68.4735 38.9097C68.3994 32.2403 73.3644 28.9055 79.3669 28.9055ZM79.3669 33.7224C82.3312 33.7224 84.6284 35.7232 84.7025 38.9097C84.7766 42.0963 82.3312 44.0971 79.3669 44.0971C76.4027 44.0971 74.1055 42.3927 74.0314 38.9097C74.0314 35.4268 76.4768 33.7224 79.3669 33.7224Z" fill="white"/>
<path fill-rule="evenodd" clip-rule="evenodd" d="M140.578 28.9055C146.58 28.9055 151.323 32.759 151.471 38.9097C151.62 45.0605 146.58 48.9139 140.578 48.9139C134.575 48.9139 129.759 45.5792 129.684 38.9097C129.61 32.2403 134.501 28.9055 140.578 28.9055ZM140.578 33.7224C143.542 33.7224 145.839 35.7232 145.913 38.9097C145.988 42.0963 143.542 44.0971 140.578 44.0971C137.614 44.0971 135.316 42.3927 135.242 38.9097C135.168 35.4268 137.614 33.7224 140.578 33.7224Z" fill="white"/>
<path fill-rule="evenodd" clip-rule="evenodd" d="M117.976 53.6565V54.9163C117.161 54.5458 116.494 54.3235 115.975 54.3235C115.678 54.3235 115.456 54.3976 115.308 54.4717C115.16 54.5458 115.086 54.694 115.086 54.8422C115.086 54.9904 115.16 55.0645 115.234 55.2128C115.382 55.2869 115.678 55.4351 116.123 55.6574C116.568 55.8056 116.938 55.9538 117.235 56.102C117.531 56.2502 117.753 56.4725 117.976 56.6949C118.198 56.9913 118.272 57.2877 118.272 57.7323C118.272 58.3252 118.05 58.7698 117.605 59.1403C117.161 59.5109 116.568 59.6591 115.827 59.6591C115.012 59.6591 114.27 59.4368 113.529 59.0662V57.7323C113.974 58.0288 114.345 58.177 114.641 58.3252C114.937 58.4734 115.308 58.5475 115.678 58.5475C116.271 58.5475 116.568 58.3252 116.568 57.9547C116.568 57.8064 116.494 57.6582 116.42 57.5841C116.271 57.4359 115.975 57.2877 115.53 57.1395C115.086 56.9913 114.715 56.8431 114.419 56.6949C114.122 56.5466 113.9 56.3243 113.678 56.102C113.455 55.8056 113.381 55.5092 113.381 55.0645C113.381 54.5458 113.604 54.1012 114.048 53.7306C114.493 53.4342 115.086 53.2119 115.827 53.2119C116.494 53.2119 117.161 53.3601 117.976 53.6565ZM111.973 58.3993V59.585H107.305V53.286H111.899V54.4717H108.861V55.8056H111.751V56.9913H108.861V58.4734H111.973V58.3993ZM105.748 53.286L102.858 59.6591H102.191L99.153 53.286H100.857L102.488 56.9172L104.044 53.286H105.748ZM97.3745 53.286V59.585H95.8182V53.286H97.3745ZM93.6692 53.6565V54.9163C92.854 54.5458 92.1871 54.3235 91.6684 54.3235C91.3719 54.3235 91.1496 54.3976 91.0014 54.4717C90.8532 54.5458 90.7791 54.694 90.7791 54.8422C90.7791 54.9904 90.8532 55.0645 90.9273 55.2128C91.0755 55.2869 91.3719 55.4351 91.8166 55.6574C92.2612 55.8056 92.6317 55.9538 92.9281 56.102C93.2246 56.2502 93.4469 56.4725 93.6692 56.6949C93.8915 56.9913 93.9656 57.2877 93.9656 57.7323C93.9656 58.3252 93.7433 58.7698 93.2987 59.1403C92.854 59.5109 92.2612 59.6591 91.5201 59.6591C90.705 59.6591 89.9639 59.4368 89.2229 59.0662V57.7323C89.6675 58.0288 90.038 58.177 90.3345 58.3252C90.6309 58.4734 91.0014 58.5475 91.3719 58.5475C91.9648 58.5475 92.2612 58.3252 92.2612 57.9547C92.2612 57.8064 92.1871 57.6582 92.0389 57.5841C91.8907 57.4359 91.5942 57.2877 91.1496 57.1395C90.705 56.9913 90.3345 56.8431 90.038 56.6949C89.7416 56.5466 89.5193 56.3243 89.297 56.102C89.0747 55.8056 89.0006 55.5092 89.0006 55.0645C89.0006 54.5458 89.2229 54.1012 89.6675 53.7306C90.1121 53.4342 90.705 53.2119 91.446 53.2119C92.2612 53.2119 92.9281 53.3601 93.6692 53.6565ZM85.2212 53.286L88.0372 59.585H86.3328L85.814 58.3252H82.998L82.5534 59.585H80.9231L83.4427 53.286H85.2212ZM85.3694 57.2136L84.3319 54.7681L83.4427 57.2136H85.3694ZM73.8831 53.286H76.8473C77.5142 53.286 78.033 53.4342 78.4035 53.8048C78.774 54.1753 78.9963 54.6199 78.9963 55.0645C78.9963 55.7315 78.6258 56.2502 77.8848 56.6208C78.2553 56.769 78.5517 57.1395 78.8481 57.8064C79.1446 58.4734 79.441 59.0662 79.7374 59.585H77.9589C77.8848 59.3626 77.6625 58.9921 77.366 58.3993C77.0696 57.8064 76.8473 57.4359 76.6991 57.2877C76.4768 57.1395 76.3286 57.0654 76.1062 57.0654H75.5875V59.585H73.9572V53.286H73.8831ZM75.5875 54.4717V55.8797H76.4768C76.7732 55.8797 76.9955 55.8056 77.1437 55.7315C77.2919 55.5833 77.366 55.4351 77.366 55.2128C77.366 54.7681 77.0696 54.4717 76.4027 54.4717H75.5875ZM66.5467 53.286H69.2886C69.9555 53.286 70.4742 53.4342 70.8448 53.7306C71.2153 54.0271 71.3635 54.3976 71.3635 54.8422C71.3635 55.361 71.0671 55.8056 70.4742 56.102C70.9189 56.2502 71.2153 56.3984 71.4376 56.6949C71.6599 56.9913 71.8081 57.2877 71.8081 57.7323C71.8081 58.2511 71.5858 58.6957 71.2153 59.0662C70.8448 59.4368 70.326 59.585 69.585 59.585H66.5467V53.286ZM68.1029 54.4717V55.8056H68.918C69.1404 55.8056 69.3627 55.7315 69.5109 55.5833C69.6591 55.4351 69.7332 55.2869 69.7332 55.0645C69.7332 54.8422 69.6591 54.694 69.5109 54.6199C69.3627 54.4717 69.1404 54.3976 68.918 54.3976H68.1029V54.4717ZM68.1029 56.9172V58.3993H68.9921C69.4368 58.3993 69.7332 58.3252 69.8814 58.2511C70.0296 58.1029 70.1778 57.9547 70.1778 57.6582C70.1778 57.4359 70.1037 57.2877 69.8814 57.1395C69.7332 56.9913 69.5109 56.9172 69.2145 56.9172H68.1029ZM62.1745 53.286L64.9905 59.585H63.286L62.7673 58.3252H59.9513L59.5067 59.585H57.8022L60.3218 53.286H62.1745ZM62.3227 57.2136L61.2852 54.7681L60.3959 57.2136H62.3227Z" fill="white"/>
<path d="M55.4307 55.6575H0V57.2137H55.4307V55.6575Z" fill="white"/>
<path d="M176 55.6575H120.569V57.2137H176V55.6575Z" fill="white"/>
</svg>
