<svg width="176" height="88" viewBox="0 0 176 88" fill="none" xmlns="http://www.w3.org/2000/svg">
<path fill-rule="evenodd" clip-rule="evenodd" d="M37.4973 24.2399H48.9095L87.9629 5.41712L127.016 24.2399H138.429L88.4076 0.081543H87.4442L37.4973 24.2399ZM115.604 24.2399H104.192L87.8888 16.3847L71.5116 24.2399H60.0994L87.8888 10.8268L115.604 24.2399Z" fill="white"/>
<path fill-rule="evenodd" clip-rule="evenodd" d="M37.4973 63.6641H48.9095L87.9629 82.4868L127.016 63.6641H138.429L88.4817 87.8224H87.4442L37.4973 63.6641ZM115.604 63.6641H104.192L87.8888 71.5192L71.5116 63.6641H60.0994L87.8888 77.0771L115.604 63.6641Z" fill="white"/>
<path fill-rule="evenodd" clip-rule="evenodd" d="M15.5621 29.205H21.0459V48.4723H16.0068L5.70614 37.5048V48.3982H0.222351V29.1309H5.26151L15.5621 40.1725V29.205Z" fill="white"/>
<path fill-rule="evenodd" clip-rule="evenodd" d="M31.9394 29.2051H38.3865L46.6863 48.4724H41.2025L39.5722 44.6931H30.7537L29.1234 48.4724H23.6396L31.9394 29.2051ZM38.016 41.136L35.1259 34.3924L32.2358 41.136H38.016Z" fill="white"/>
<path fill-rule="evenodd" clip-rule="evenodd" d="M49.6505 29.2051H59.136C63.8787 29.5015 66.1019 31.3541 66.1019 35.1335C66.0278 40.2468 62.5448 41.136 57.8762 41.136H55.3566V48.4724H49.6505V29.2051ZM55.3566 32.6139V37.6531H57.8762C59.6547 37.6531 60.6922 36.7638 60.7663 35.2076C60.8404 33.7996 59.9511 32.688 57.8762 32.6139H55.3566Z" fill="white"/>
<path fill-rule="evenodd" clip-rule="evenodd" d="M94.1878 29.2051H99.8939V43.952H108.935V48.4724H94.1878V29.2051Z" fill="white"/>
<path fill-rule="evenodd" clip-rule="evenodd" d="M112.344 29.2051H126.424V33.1327H117.976V36.3933H126.201V40.3209H117.976V44.4708H126.72V48.3983H112.269V29.2051H112.344Z" fill="white"/>
<path fill-rule="evenodd" clip-rule="evenodd" d="M170.294 29.2051H175.778V48.4724H170.739L160.438 37.579V48.4724H154.954V29.2051H159.993L170.294 40.2468V29.2051Z" fill="white"/>
<path fill-rule="evenodd" clip-rule="evenodd" d="M79.3667 28.686C85.3692 28.686 90.112 32.5395 90.2602 38.6902C90.4084 44.841 85.3692 48.6945 79.3667 48.6945C73.3642 48.6945 68.5473 45.3597 68.4732 38.6902C68.3991 32.0208 73.3642 28.686 79.3667 28.686ZM79.3667 33.5029C82.3309 33.5029 84.6282 35.5037 84.7023 38.6902C84.7764 41.8768 82.3309 43.8776 79.3667 43.8776C76.4025 43.8776 74.1052 42.1732 74.0311 38.6902C74.0311 35.2073 76.4766 33.5029 79.3667 33.5029Z" fill="white"/>
<path fill-rule="evenodd" clip-rule="evenodd" d="M140.578 28.686C146.58 28.686 151.323 32.5395 151.471 38.6902C151.619 44.841 146.58 48.6945 140.578 48.6945C134.575 48.6945 129.758 45.3597 129.684 38.6902C129.61 32.0208 134.501 28.686 140.578 28.686ZM140.578 33.5029C143.542 33.5029 145.839 35.5037 145.913 38.6902C145.987 41.8768 143.542 43.8776 140.578 43.8776C137.613 43.8776 135.316 42.1732 135.242 38.6902C135.168 35.2073 137.613 33.5029 140.578 33.5029Z" fill="white"/>
<path fill-rule="evenodd" clip-rule="evenodd" d="M117.976 53.4373V54.6971C117.16 54.3266 116.493 54.1043 115.975 54.1043C115.678 54.1043 115.456 54.1784 115.308 54.2525C115.16 54.3266 115.085 54.4748 115.085 54.623C115.085 54.7712 115.16 54.8453 115.234 54.9935C115.382 55.0676 115.678 55.2158 116.123 55.4381C116.568 55.5864 116.938 55.7346 117.234 55.8828C117.531 56.031 117.753 56.2533 117.976 56.4756C118.198 56.772 118.272 57.0685 118.272 57.5131C118.272 58.1059 118.05 58.5506 117.605 58.9211C117.16 59.2916 116.568 59.4398 115.826 59.4398C115.011 59.4398 114.27 59.2175 113.529 58.847V57.5131C113.974 57.8095 114.344 57.9577 114.641 58.1059C114.937 58.2541 115.308 58.3283 115.678 58.3283C116.271 58.3283 116.568 58.1059 116.568 57.7354C116.568 57.5872 116.493 57.439 116.419 57.3649C116.271 57.2167 115.975 57.0685 115.53 56.9203C115.085 56.772 114.715 56.6238 114.418 56.4756C114.122 56.3274 113.9 56.1051 113.677 55.8828C113.455 55.5864 113.381 55.2899 113.381 54.8453C113.381 54.3266 113.603 53.8819 114.048 53.5114C114.493 53.215 115.085 52.9927 115.826 52.9927C116.493 52.9927 117.16 53.1409 117.976 53.4373ZM111.973 58.18V59.3657H107.304V53.0668H111.899V54.2525H108.861V55.5864H111.751V56.772H108.861V58.2541H111.973V58.18ZM105.748 53.0668L102.858 59.4398H102.191L99.1528 53.0668H100.857L102.488 56.6979L104.044 53.0668H105.748ZM97.3743 53.0668V59.3657H95.8181V53.0668H97.3743ZM93.669 53.4373V54.6971C92.8539 54.3266 92.1869 54.1043 91.6682 54.1043C91.3717 54.1043 91.1494 54.1784 91.0012 54.2525C90.853 54.3266 90.7789 54.4748 90.7789 54.623C90.7789 54.7712 90.853 54.8453 90.9271 54.9935C91.0753 55.0676 91.3717 55.2158 91.8164 55.4381C92.261 55.5864 92.6315 55.7346 92.928 55.8828C93.2244 56.031 93.4467 56.2533 93.669 56.4756C93.8913 56.772 93.9654 57.0685 93.9654 57.5131C93.9654 58.1059 93.7431 58.5506 93.2985 58.9211C92.8539 59.2916 92.261 59.4398 91.52 59.4398C90.7048 59.4398 89.9637 59.2175 89.2227 58.847V57.5131C89.6673 57.8095 90.0379 57.9577 90.3343 58.1059C90.6307 58.2541 91.0012 58.3283 91.3717 58.3283C91.9646 58.3283 92.261 58.1059 92.261 57.7354C92.261 57.5872 92.1869 57.439 92.0387 57.3649C91.8905 57.2167 91.5941 57.0685 91.1494 56.9203C90.7048 56.772 90.3343 56.6238 90.0379 56.4756C89.7414 56.3274 89.5191 56.1051 89.2968 55.8828C89.0745 55.5864 89.0004 55.2899 89.0004 54.8453C89.0004 54.3266 89.2227 53.8819 89.6673 53.5114C90.112 53.215 90.7048 52.9927 91.4459 52.9927C92.261 52.9927 92.928 53.1409 93.669 53.4373ZM85.221 53.0668L88.037 59.3657H86.3326L85.8139 58.1059H82.9979L82.5532 59.3657H80.9229L83.4425 53.0668H85.221ZM85.3692 56.9944L84.3317 54.5489L83.4425 56.9944H85.3692ZM73.8829 53.0668H76.8471C77.5141 53.0668 78.0328 53.215 78.4033 53.5855C78.7739 53.956 78.9962 54.4007 78.9962 54.8453C78.9962 55.5123 78.6256 56.031 77.8846 56.4015C78.2551 56.5497 78.5515 56.9203 78.848 57.5872C79.1444 58.2541 79.4408 58.847 79.7372 59.3657H77.9587C77.8846 59.1434 77.6623 58.7729 77.3659 58.18C77.0694 57.5872 76.8471 57.2167 76.6989 57.0685C76.4766 56.9203 76.3284 56.8461 76.1061 56.8461H75.5873V59.3657H73.957V53.0668H73.8829ZM75.5873 54.2525V55.6605H76.4766C76.773 55.6605 76.9953 55.5864 77.1435 55.5123C77.2917 55.364 77.3659 55.2158 77.3659 54.9935C77.3659 54.5489 77.0694 54.2525 76.4025 54.2525H75.5873ZM66.5465 53.0668H69.2884C69.9553 53.0668 70.4741 53.215 70.8446 53.5114C71.2151 53.8078 71.3633 54.1784 71.3633 54.623C71.3633 55.1417 71.0669 55.5864 70.4741 55.8828C70.9187 56.031 71.2151 56.1792 71.4374 56.4756C71.6597 56.772 71.808 57.0685 71.808 57.5131C71.808 58.0318 71.5856 58.4765 71.2151 58.847C70.8446 59.2175 70.3259 59.3657 69.5848 59.3657H66.5465V53.0668ZM68.1027 54.2525V55.5864H68.9179C69.1402 55.5864 69.3625 55.5123 69.5107 55.364C69.6589 55.2158 69.733 55.0676 69.733 54.8453C69.733 54.623 69.6589 54.4748 69.5107 54.4007C69.3625 54.2525 69.1402 54.1784 68.9179 54.1784H68.1027V54.2525ZM68.1027 56.6979V58.18H68.992C69.4366 58.18 69.733 58.1059 69.8812 58.0318C70.0294 57.8836 70.1776 57.7354 70.1776 57.439C70.1776 57.2167 70.1035 57.0685 69.8812 56.9203C69.733 56.772 69.5107 56.6979 69.2143 56.6979H68.1027ZM62.1743 53.0668L64.9903 59.3657H63.2859L62.7671 58.1059H59.9511L59.5065 59.3657H57.8021L60.3216 53.0668H62.1743ZM62.3225 56.9944L61.285 54.5489L60.3957 56.9944H62.3225Z" fill="white"/>
<path d="M55.4307 55.438H0V56.9942H55.4307V55.438Z" fill="white"/>
<path d="M176 55.438H120.569V56.9942H176V55.438Z" fill="white"/>
</svg>
