<svg width="510" height="597" viewBox="0 0 510 597" fill="none" xmlns="http://www.w3.org/2000/svg">
<path d="M7.25763 144.217H5.25763V146.217H7.25763V144.217ZM89.7772 139.041L89.0793 137.167L89.0706 137.17L89.0619 137.173L89.7772 139.041ZM112.922 124.49L114.336 125.904L114.341 125.899L114.347 125.893L112.922 124.49ZM7.25763 2.12695V0.126953H5.25763V2.12695H7.25763ZM44.1717 110.428H42.1717V112.428H44.1717V110.428ZM44.1717 36.0137V34.0137H42.1717V36.0137H44.1717ZM89.6795 58.6699L91.5522 57.9677L91.5472 57.9546L89.6795 58.6699ZM87.9217 92.0684L86.1519 91.1369L86.1485 91.1432L86.1453 91.1495L87.9217 92.0684ZM7.25763 146.217H59.0154V142.217H7.25763V146.217ZM59.0154 146.217C70.5377 146.217 81.0417 144.528 90.4925 140.909L89.0619 137.173C80.1533 140.585 70.1494 142.217 59.0154 142.217V146.217ZM90.475 140.915C99.9005 137.406 107.866 132.374 114.336 125.904L111.507 123.076C105.477 129.106 98.0132 133.84 89.0793 137.167L90.475 140.915ZM114.347 125.893C120.698 119.442 125.631 111.784 129.048 102.841L125.311 101.413C122.087 109.853 117.451 117.039 111.496 123.087L114.347 125.893ZM129.048 102.841C132.465 93.8951 134.16 84.0793 134.16 73.416H130.16C130.16 83.6511 128.534 92.976 125.311 101.413L129.048 102.841ZM134.16 73.416C134.16 62.8365 132.363 52.9133 128.743 43.8646L125.03 45.3502C128.441 53.8796 130.16 63.2924 130.16 73.416H134.16ZM128.743 43.8646C125.134 34.8415 120.104 27.0835 113.544 20.6237L110.737 23.474C116.872 29.5141 121.608 36.7952 125.03 45.3502L128.743 43.8646ZM113.544 20.6237C106.978 14.1586 98.9224 9.13515 89.5159 5.53268L88.0853 9.2681C97.0382 12.6969 104.608 17.439 110.737 23.474L113.544 20.6237ZM89.5159 5.53268C80.0806 1.91917 69.6782 0.126953 58.4295 0.126953V4.12695C69.2511 4.12695 79.1612 5.85036 88.0853 9.2681L89.5159 5.53268ZM58.4295 0.126953H7.25763V4.12695H58.4295V0.126953ZM5.25763 2.12695V144.217H9.25763V2.12695H5.25763ZM46.1717 110.428V36.0137H42.1717V110.428H46.1717ZM44.1717 38.0137H59.2108V34.0137H44.1717V38.0137ZM59.2108 38.0137C63.4086 38.0137 67.5091 38.9252 71.3392 40.7491L73.0589 37.1376C68.6859 35.0552 63.9973 34.0137 59.2108 34.0137V38.0137ZM71.3392 40.7491C75.2263 42.6001 78.5153 44.9841 81.2462 48.0791L84.2456 45.4326C81.1171 41.887 77.3749 39.1929 73.0589 37.1376L71.3392 40.7491ZM81.2462 48.0791C83.9821 51.1797 86.1176 54.9614 87.8118 59.3852L91.5472 57.9546C89.7258 53.1988 87.3691 48.9726 84.2456 45.4326L81.2462 48.0791ZM87.8068 59.3722C89.4784 63.8297 90.3162 68.4742 90.3162 73.416H94.3162C94.3162 68.0063 93.3962 62.8852 91.5522 57.9677L87.8068 59.3722ZM90.3162 73.416C90.3162 79.9587 88.9164 85.8842 86.1519 91.1369L89.6915 92.9999C92.7863 87.1197 94.3162 80.5452 94.3162 73.416H90.3162ZM86.1453 91.1495C83.3919 96.4728 79.4548 100.6 74.2861 103.738L76.362 107.157C82.1307 103.654 86.5922 98.9921 89.6981 92.9872L86.1453 91.1495ZM74.2861 103.738C69.1607 106.85 63.2766 108.428 56.574 108.428V112.428C63.9339 112.428 70.5499 110.686 76.362 107.157L74.2861 103.738ZM56.574 108.428H44.1717V112.428H56.574V108.428ZM149.543 144.217H147.543V146.217H149.543V144.217ZM188.117 144.217V146.217H190.117V144.217H188.117ZM188.117 2.12695H190.117V0.126953H188.117V2.12695ZM149.543 2.12695V0.126953H147.543V2.12695H149.543ZM149.543 146.217H188.117V142.217H149.543V146.217ZM190.117 144.217V2.12695H186.117V144.217H190.117ZM188.117 0.126953H149.543V4.12695H188.117V0.126953ZM147.543 2.12695V144.217H151.543V2.12695H147.543ZM210.187 144.217H208.187V146.217H210.187V144.217ZM247.101 144.217V146.217H249.101V144.217H247.101ZM247.101 96.4629V94.4629H245.101V96.4629H247.101ZM296.808 96.4629V98.4629H298.808V96.4629H296.808ZM296.808 62.7715H298.808V60.7715H296.808V62.7715ZM247.101 62.7715H245.101V64.7715H247.101V62.7715ZM247.101 36.0137V34.0137H245.101V36.0137H247.101ZM307.844 36.0137V38.0137H309.844V36.0137H307.844ZM307.844 2.12695H309.844V0.126953H307.844V2.12695ZM210.187 2.12695V0.126953H208.187V2.12695H210.187ZM210.187 146.217H247.101V142.217H210.187V146.217ZM249.101 144.217V96.4629H245.101V144.217H249.101ZM247.101 98.4629H296.808V94.4629H247.101V98.4629ZM298.808 96.4629V62.7715H294.808V96.4629H298.808ZM296.808 60.7715H247.101V64.7715H296.808V60.7715ZM249.101 62.7715V36.0137H245.101V62.7715H249.101ZM247.101 38.0137H307.844V34.0137H247.101V38.0137ZM309.844 36.0137V2.12695H305.844V36.0137H309.844ZM307.844 0.126953H210.187V4.12695H307.844V0.126953ZM208.187 2.12695V144.217H212.187V2.12695H208.187ZM322.883 144.217H320.883V146.217H322.883V144.217ZM421.515 144.217V146.217H423.515V144.217H421.515ZM421.515 110.428H423.515V108.428H421.515V110.428ZM359.699 110.428H357.699V112.428H359.699V110.428ZM359.699 90.4082V88.4082H357.699V90.4082H359.699ZM404.816 90.4082V92.4082H406.816V90.4082H404.816ZM404.816 57.4004H406.816V55.4004H404.816V57.4004ZM359.699 57.4004H357.699V59.4004H359.699V57.4004ZM359.699 36.0137V34.0137H357.699V36.0137H359.699ZM417.316 36.0137V38.0137H419.316V36.0137H417.316ZM417.316 2.12695H419.316V0.126953H417.316V2.12695ZM322.883 2.12695V0.126953H320.883V2.12695H322.883ZM322.883 146.217H421.515V142.217H322.883V146.217ZM423.515 144.217V110.428H419.515V144.217H423.515ZM421.515 108.428H359.699V112.428H421.515V108.428ZM361.699 110.428V90.4082H357.699V110.428H361.699ZM359.699 92.4082H404.816V88.4082H359.699V92.4082ZM406.816 90.4082V57.4004H402.816V90.4082H406.816ZM404.816 55.4004H359.699V59.4004H404.816V55.4004ZM361.699 57.4004V36.0137H357.699V57.4004H361.699ZM359.699 38.0137H417.316V34.0137H359.699V38.0137ZM419.316 36.0137V2.12695H415.316V36.0137H419.316ZM417.316 0.126953H322.883V4.12695H417.316V0.126953ZM320.883 2.12695V144.217H324.883V2.12695H320.883ZM123.957 368.217V370.217H127.655L125.631 367.122L123.957 368.217ZM91.8279 319.096L89.9306 318.463L89.6247 319.381L90.1542 320.19L91.8279 319.096ZM91.9256 318.803L91.0875 316.987L90.3019 317.349L90.0282 318.17L91.9256 318.803ZM102.082 312.064L100.744 310.578L100.73 310.59L100.717 310.602L102.082 312.064ZM109.601 302.787L111.308 303.83L111.319 303.813L111.329 303.795L109.601 302.787ZM112.824 256.4L114.718 255.759L114.714 255.745L114.709 255.732L112.824 256.4ZM103.449 240.482L104.94 239.15L104.933 239.142L104.926 239.134L103.449 240.482ZM7.25763 226.127V224.127H5.25763V226.127H7.25763ZM7.25763 368.217H5.25763V370.217H7.25763V368.217ZM44.1717 368.217V370.217H46.1717V368.217H44.1717ZM44.1717 324.857V322.857H42.1717V324.857H44.1717ZM52.9608 324.857L54.6628 323.807L54.0767 322.857H52.9608V324.857ZM79.7186 368.217L78.0166 369.267L78.6026 370.217H79.7186V368.217ZM44.1717 259.525V257.525H42.1717V259.525H44.1717ZM70.7342 287.748L69.5678 286.123L69.5542 286.133L69.5408 286.143L70.7342 287.748ZM44.1717 291.947H42.1717V293.947H44.1717V291.947ZM125.631 367.122L93.5017 318.001L90.1542 320.19L122.283 369.312L125.631 367.122ZM93.7253 319.728L93.823 319.435L90.0282 318.17L89.9306 318.463L93.7253 319.728ZM92.7637 320.619C96.748 318.78 100.348 316.419 103.446 313.527L100.717 310.602C97.9566 313.179 94.7204 315.31 91.0875 316.987L92.7637 320.619ZM103.42 313.551C106.525 310.757 109.083 307.47 111.308 303.83L107.895 301.744C105.823 305.135 103.499 308.099 100.744 310.578L103.42 313.551ZM111.329 303.795C113.484 300.1 115.115 296.012 116.232 291.446L112.346 290.496C111.314 294.718 109.82 298.443 107.874 301.779L111.329 303.795ZM116.232 291.446C117.346 286.888 117.949 281.943 117.949 276.615H113.949C113.949 281.639 113.38 286.265 112.346 290.496L116.232 291.446ZM117.949 276.615C117.949 268.999 116.846 262.042 114.718 255.759L110.93 257.042C112.903 262.868 113.949 269.387 113.949 276.615H117.949ZM114.709 255.732C112.476 249.438 109.219 243.938 104.94 239.15L101.958 241.815C105.882 246.207 108.876 251.254 110.939 257.069L114.709 255.732ZM104.926 239.134C100.574 234.368 94.8237 230.695 87.9524 228.067L86.5238 231.804C92.9338 234.255 98.1205 237.613 101.972 241.831L104.926 239.134ZM87.9524 228.067C81.0381 225.424 73.0726 224.127 64.1912 224.127V228.127C72.6926 228.127 80.1569 229.369 86.5238 231.804L87.9524 228.067ZM64.1912 224.127H7.25763V228.127H64.1912V224.127ZM5.25763 226.127V368.217H9.25763V226.127H5.25763ZM7.25763 370.217H44.1717V366.217H7.25763V370.217ZM46.1717 368.217V324.857H42.1717V368.217H46.1717ZM44.1717 326.857H52.9608V322.857H44.1717V326.857ZM51.2588 325.908L78.0166 369.267L81.4206 367.166L54.6628 323.807L51.2588 325.908ZM79.7186 370.217H123.957V366.217H79.7186V370.217ZM44.1717 261.525H55.6951V257.525H44.1717V261.525ZM55.6951 261.525C62.0376 261.525 66.5865 263.017 69.7189 265.726L72.3355 262.7C68.2412 259.159 62.6339 257.525 55.6951 257.525V261.525ZM69.7189 265.726C72.9308 268.504 74.4959 271.776 74.4959 275.736H78.4959C78.4959 270.517 76.3501 266.172 72.3355 262.7L69.7189 265.726ZM74.4959 275.736C74.4959 280.443 72.7933 283.808 69.5678 286.123L71.9006 289.373C76.2922 286.22 78.4959 281.577 78.4959 275.736H74.4959ZM69.5408 286.143C66.1785 288.643 61.6613 289.947 55.6951 289.947V293.947C62.2289 293.947 67.6727 292.517 71.9276 289.353L69.5408 286.143ZM55.6951 289.947H44.1717V293.947H55.6951V289.947ZM46.1717 291.947V259.525H42.1717V291.947H46.1717ZM135.187 368.217H133.187V370.217H135.187V368.217ZM233.82 368.217V370.217H235.82V368.217H233.82ZM233.82 334.428H235.82V332.428H233.82V334.428ZM172.004 334.428H170.004V336.428H172.004V334.428ZM172.004 314.408V312.408H170.004V314.408H172.004ZM217.121 314.408V316.408H219.121V314.408H217.121ZM217.121 281.4H219.121V279.4H217.121V281.4ZM172.004 281.4H170.004V283.4H172.004V281.4ZM172.004 260.014V258.014H170.004V260.014H172.004ZM229.621 260.014V262.014H231.621V260.014H229.621ZM229.621 226.127H231.621V224.127H229.621V226.127ZM135.187 226.127V224.127H133.187V226.127H135.187ZM135.187 370.217H233.82V366.217H135.187V370.217ZM235.82 368.217V334.428H231.82V368.217H235.82ZM233.82 332.428H172.004V336.428H233.82V332.428ZM174.004 334.428V314.408H170.004V334.428H174.004ZM172.004 316.408H217.121V312.408H172.004V316.408ZM219.121 314.408V281.4H215.121V314.408H219.121ZM217.121 279.4H172.004V283.4H217.121V279.4ZM174.004 281.4V260.014H170.004V281.4H174.004ZM172.004 262.014H229.621V258.014H172.004V262.014ZM231.621 260.014V226.127H227.621V260.014H231.621ZM229.621 224.127H135.187V228.127H229.621V224.127ZM133.187 226.127V368.217H137.187V226.127H133.187ZM336.457 226.127V224.127H334.457V226.127H336.457ZM336.457 306.205V308.205H338.457V306.205H336.457ZM335.969 306.205L334.248 307.225L334.829 308.205H335.969V306.205ZM288.508 226.127L290.228 225.107L289.647 224.127H288.508V226.127ZM250.226 226.127V224.127H248.226V226.127H250.226ZM250.226 368.217H248.226V370.217H250.226V368.217ZM288.019 368.217V370.217H290.019V368.217H288.019ZM288.019 290.482V288.482H286.019V290.482H288.019ZM288.508 290.482L290.223 289.454L289.641 288.482H288.508V290.482ZM335.09 368.217L333.374 369.245L333.957 370.217H335.09V368.217ZM374.543 368.217V370.217H376.543V368.217H374.543ZM374.543 226.127H376.543V224.127H374.543V226.127ZM334.457 226.127V306.205H338.457V226.127H334.457ZM336.457 304.205H335.969V308.205H336.457V304.205ZM337.689 305.185L290.228 225.107L286.787 227.147L334.248 307.225L337.689 305.185ZM288.508 224.127H250.226V228.127H288.508V224.127ZM248.226 226.127V368.217H252.226V226.127H248.226ZM250.226 370.217H288.019V366.217H250.226V370.217ZM290.019 368.217V290.482H286.019V368.217H290.019ZM288.019 292.482H288.508V288.482H288.019V292.482ZM286.792 291.51L333.374 369.245L336.805 367.189L290.223 289.454L286.792 291.51ZM335.09 370.217H374.543V366.217H335.09V370.217ZM376.543 368.217V226.127H372.543V368.217H376.543ZM374.543 224.127H336.457V228.127H374.543V224.127ZM109.894 586.748L109 584.959L108.993 584.963L109.894 586.748ZM134.797 567.119L136.344 568.387L137.582 566.876L136.1 565.602L134.797 567.119ZM106.965 543.193L108.268 541.677L106.714 540.341L105.417 541.927L106.965 543.193ZM93.3904 553.643L92.5218 551.841L92.5089 551.847L92.496 551.854L93.3904 553.643ZM51.7889 546.807L53.3105 545.509L53.2997 545.496L53.2886 545.483L51.7889 546.807ZM45.1483 535.283L47.0327 534.613L47.0303 534.606L47.0278 534.6L45.1483 535.283ZM44.66 508.525L46.5664 509.13L46.5732 509.109L46.5794 509.087L44.66 508.525ZM94.7576 489.58L95.8058 487.877L95.7817 487.862L95.7571 487.848L94.7576 489.58ZM106.965 499.346L105.511 500.719L106.818 502.104L108.265 500.865L106.965 499.346ZM134.797 475.518L136.097 477.037L137.593 475.756L136.336 474.24L134.797 475.518ZM107.844 454.912L108.654 453.084L108.647 453.081L108.64 453.077L107.844 454.912ZM36.5545 458.135L35.5487 456.406L35.5371 456.413L35.5255 456.42L36.5545 458.135ZM11.4568 484.502L13.2328 485.422L13.2394 485.409L13.2457 485.396L11.4568 484.502ZM5.01154 501.982L6.95182 502.467L6.9554 502.453L6.95877 502.439L5.01154 501.982ZM5.49982 543.389L7.4368 542.891L7.43348 542.878L7.42998 542.865L5.49982 543.389ZM24.9334 575.615L26.2834 574.14L26.2748 574.132L26.2661 574.124L24.9334 575.615ZM57.6483 592.119L58.1115 590.174L58.0936 590.169L58.0756 590.165L57.6483 592.119ZM76.8865 596.268C89.0819 596.268 100.431 593.766 110.796 588.533L108.993 584.963C99.241 589.886 88.5193 592.268 76.8865 592.268V596.268ZM110.789 588.537C120.985 583.439 129.514 576.723 136.344 568.387L133.25 565.852C126.798 573.726 118.725 580.097 109 584.959L110.789 588.537ZM136.1 565.602L108.268 541.677L105.661 544.71L133.493 568.636L136.1 565.602ZM105.417 541.927C102.106 545.974 97.7575 549.317 92.5218 551.841L94.259 555.444C99.9609 552.695 104.792 549.007 108.513 544.46L105.417 541.927ZM92.496 551.854C87.2983 554.453 82.0374 555.646 76.8865 555.646V559.646C82.6732 559.646 88.5451 558.301 94.2849 555.431L92.496 551.854ZM76.8865 555.646C71.865 555.646 67.3667 554.718 63.3587 552.896L61.7035 556.538C66.2892 558.622 71.3612 559.646 76.8865 559.646V555.646ZM63.3587 552.896C59.2981 551.05 55.9317 548.582 53.3105 545.509L50.2672 548.105C53.3102 551.672 57.1703 554.477 61.7035 556.538L63.3587 552.896ZM53.2886 545.483C50.5481 542.378 48.5208 538.799 47.0327 534.613L43.2638 535.953C44.9007 540.557 47.1703 544.595 50.2892 548.13L53.2886 545.483ZM47.0278 534.6C45.5503 530.536 44.8045 526.179 44.8045 521.514H40.8045C40.8045 526.614 41.6212 531.436 43.2687 535.967L47.0278 534.6ZM44.8045 521.514C44.8045 516.994 45.3692 512.906 46.5664 509.13L42.7535 507.921C41.4117 512.153 40.8045 516.658 40.8045 521.514H44.8045ZM46.5794 509.087C47.6844 505.312 49.3367 502.103 51.3509 499.357L48.1253 496.991C45.8426 500.104 43.9793 503.731 42.7405 507.964L46.5794 509.087ZM51.3509 499.357C53.3799 496.59 55.6673 494.307 58.4046 492.39L56.1107 489.113C52.9886 491.299 50.3932 493.899 48.1253 496.991L51.3509 499.357ZM58.4046 492.39C61.177 490.45 64.1074 488.99 67.197 488.081L66.0683 484.243C62.5172 485.288 59.1977 486.953 56.1107 489.113L58.4046 492.39ZM67.197 488.081C70.3311 487.159 73.5589 486.697 76.8865 486.697V482.697C73.1829 482.697 69.5748 483.212 66.0683 484.243L67.197 488.081ZM76.8865 486.697C79.8018 486.697 82.7436 487.153 85.72 487.99L86.803 484.139C83.5294 483.218 80.2212 482.697 76.8865 482.697V486.697ZM85.72 487.99C88.7019 488.828 91.3776 489.939 93.7582 491.312L95.7571 487.848C93.0595 486.291 90.0712 485.058 86.803 484.139L85.72 487.99ZM93.7094 491.283C96.1914 492.811 98.3683 494.327 100.247 495.829L102.745 492.706C100.717 491.083 98.402 489.474 95.8058 487.877L93.7094 491.283ZM100.247 495.829C102.114 497.323 103.902 499.015 105.511 500.719L108.419 497.972C106.707 496.161 104.784 494.337 102.745 492.706L100.247 495.829ZM108.265 500.865L136.097 477.037L133.496 473.998L105.664 497.826L108.265 500.865ZM136.336 474.24C128.529 464.833 119.299 457.804 108.654 453.084L107.033 456.74C117.091 461.2 125.83 467.843 133.258 476.795L136.336 474.24ZM108.64 453.077C98.0743 448.492 87.55 446.076 76.8865 446.076V450.076C86.9262 450.076 96.9097 452.347 107.047 456.747L108.64 453.077ZM76.8865 446.076C68.9237 446.076 61.4307 446.972 54.4158 448.776L55.412 452.65C62.0689 450.938 69.2244 450.076 76.8865 450.076V446.076ZM54.4158 448.776C47.4106 450.577 41.0863 453.184 35.5487 456.406L37.5603 459.863C42.7649 456.835 48.7452 454.364 55.412 452.65L54.4158 448.776ZM35.5255 456.42C30.0041 459.733 25.0784 463.652 20.6561 468.276L23.5467 471.041C27.7181 466.68 32.3627 462.982 37.5835 459.85L35.5255 456.42ZM20.6561 468.276C16.2451 472.887 12.5062 477.931 9.66799 483.608L13.2457 485.396C15.8762 480.135 19.3639 475.413 23.5467 471.041L20.6561 468.276ZM9.68086 483.582C6.77299 489.197 4.56695 495.115 3.0643 501.526L6.95877 502.439C8.38581 496.35 10.4766 490.744 13.2328 485.422L9.68086 483.582ZM3.07125 501.497C1.46248 507.932 0.765442 514.642 0.765442 521.514H4.76544C4.76544 514.909 5.43559 508.532 6.95182 502.467L3.07125 501.497ZM0.765442 521.514C0.765442 529.478 1.66171 536.883 3.56965 543.913L7.42998 542.865C5.62699 536.222 4.76544 529.174 4.76544 521.514H0.765442ZM3.56283 543.887C5.36756 550.905 7.9842 557.057 11.4245 562.521L14.8095 560.389C11.6092 555.307 9.1477 549.544 7.4368 542.891L3.56283 543.887ZM11.4245 562.521C14.831 567.931 18.8542 572.865 23.6007 577.107L26.2661 574.124C21.833 570.162 18.0437 565.526 14.8095 560.389L11.4245 562.521ZM23.5834 577.091C28.3184 581.423 33.5519 584.944 39.1757 587.756L40.9646 584.178C35.6508 581.521 30.7281 578.206 26.2834 574.14L23.5834 577.091ZM39.1757 587.756C44.7994 590.568 50.8165 592.672 57.2209 594.073L58.0756 590.165C51.9801 588.832 46.2783 586.835 40.9646 584.178L39.1757 587.756ZM57.185 594.065C63.507 595.57 70.1094 596.268 76.8865 596.268V592.268C70.3824 592.268 64.0942 591.598 58.1115 590.174L57.185 594.065ZM149.347 592.217H147.347V594.217H149.347V592.217ZM187.922 592.217V594.217H189.922V592.217H187.922ZM187.922 450.127H189.922V448.127H187.922V450.127ZM149.347 450.127V448.127H147.347V450.127H149.347ZM149.347 594.217H187.922V590.217H149.347V594.217ZM189.922 592.217V450.127H185.922V592.217H189.922ZM187.922 448.127H149.347V452.127H187.922V448.127ZM147.347 450.127V592.217H151.347V450.127H147.347ZM298.762 592.217L296.852 592.81L297.289 594.217H298.762V592.217ZM338.508 592.217V594.217H341.361L340.388 591.535L338.508 592.217ZM286.945 450.127L288.825 449.445L288.347 448.127H286.945V450.127ZM250.617 450.127V448.127H249.215L248.737 449.445L250.617 450.127ZM199.055 592.217L197.174 591.535L196.201 594.217H199.055V592.217ZM238.898 592.217V594.217H240.371L240.808 592.81L238.898 592.217ZM246.027 569.268V567.268H244.554L244.117 568.674L246.027 569.268ZM291.633 569.268L293.543 568.674L293.106 567.268H291.633V569.268ZM255.89 537.334L253.981 536.74L253.174 539.334H255.89V537.334ZM268.586 496.514V494.514H267.113L266.676 495.92L268.586 496.514ZM268.976 496.514L270.886 495.92L270.449 494.514H268.976V496.514ZM281.672 537.334V539.334H284.388L283.581 536.74L281.672 537.334ZM298.762 594.217H338.508V590.217H298.762V594.217ZM340.388 591.535L288.825 449.445L285.065 450.809L336.628 592.899L340.388 591.535ZM286.945 448.127H250.617V452.127H286.945V448.127ZM248.737 449.445L197.174 591.535L200.935 592.899L252.497 450.809L248.737 449.445ZM199.055 594.217H238.898V590.217H199.055V594.217ZM240.808 592.81L247.937 569.861L244.117 568.674L236.988 591.623L240.808 592.81ZM246.027 571.268H291.633V567.268H246.027V571.268ZM289.723 569.861L296.852 592.81L300.672 591.623L293.543 568.674L289.723 569.861ZM257.8 537.928L270.496 497.108L266.676 495.92L253.981 536.74L257.8 537.928ZM268.586 498.514H268.976V494.514H268.586V498.514ZM267.067 497.108L279.762 537.928L283.581 536.74L270.886 495.92L267.067 497.108ZM281.672 535.334H255.89V539.334H281.672V535.334ZM349.543 592.217H347.543V594.217H349.543V592.217ZM388.117 592.217V594.217H390.117V592.217H388.117ZM388.117 450.127H390.117V448.127H388.117V450.127ZM349.543 450.127V448.127H347.543V450.127H349.543ZM349.543 594.217H388.117V590.217H349.543V594.217ZM390.117 592.217V450.127H386.117V592.217H390.117ZM388.117 448.127H349.543V452.127H388.117V448.127ZM347.543 450.127V592.217H351.543V450.127H347.543ZM464.289 593.584L464.564 595.565L464.572 595.564L464.289 593.584ZM474.836 591.143L474.251 589.23L474.235 589.235L474.219 589.24L474.836 591.143ZM484.894 586.943L483.956 585.177L483.935 585.188L483.914 585.2L484.894 586.943ZM493.781 580.596L495.116 582.085L495.129 582.073L495.142 582.061L493.781 580.596ZM505.597 560.967L503.671 560.429L503.668 560.441L505.597 560.967ZM504.426 531.279L502.587 532.067L502.591 532.077L504.426 531.279ZM487.14 514.092L488.098 512.336L488.084 512.328L488.07 512.321L487.14 514.092ZM463.312 504.033L464.045 502.172L464.027 502.165L464.009 502.158L463.312 504.033ZM449.445 497.002L450.797 495.528L450.782 495.514L450.766 495.501L449.445 497.002ZM448.371 483.721L447.048 482.221L447.042 482.226L448.371 483.721ZM482.844 494.268L481.635 495.861L483.21 497.055L484.423 495.495L482.844 494.268ZM503.937 467.119L505.517 468.346L506.683 466.845L505.242 465.604L503.937 467.119ZM453.644 448.174L453.603 446.174L453.601 446.174L453.644 448.174ZM429.328 454.131L428.414 452.352L428.405 452.357L428.395 452.362L429.328 454.131ZM416.437 519.463L417.909 518.109L417.895 518.094L417.881 518.079L416.437 519.463ZM423.371 525.615L424.571 524.015L424.549 523.999L424.527 523.983L423.371 525.615ZM449.445 537.92L450.1 536.03L450.089 536.026L450.078 536.023L449.445 537.92ZM464.387 558.135L465.688 559.653L465.706 559.638L465.724 559.621L464.387 558.135ZM422.785 545.049L424.212 543.648L422.643 542.05L421.232 543.788L422.785 545.049ZM401.301 571.514L399.748 570.253L398.626 571.635L399.868 572.909L401.301 571.514ZM426.008 588.604L426.788 586.762L426.781 586.759L426.008 588.604ZM453.84 596.268C457.431 596.268 460.943 596.068 464.564 595.565L464.014 591.603C460.604 592.077 457.279 592.268 453.84 592.268V596.268ZM464.572 595.564C468.096 595.06 471.724 594.254 475.453 593.045L474.219 589.24C470.721 590.375 467.317 591.131 464.006 591.604L464.572 595.564ZM475.42 593.055C479.039 591.95 482.596 590.531 485.875 588.687L483.914 585.2C480.942 586.872 477.664 588.187 474.251 589.23L475.42 593.055ZM485.833 588.71C489.131 586.957 492.193 584.706 495.116 582.085L492.446 579.107C489.705 581.564 486.907 583.609 483.956 585.177L485.833 588.71ZM495.142 582.061C497.983 579.423 500.544 576.458 502.606 573.16L499.214 571.04C497.369 573.991 495.048 576.69 492.42 579.13L495.142 582.061ZM502.606 573.16C504.681 569.839 506.314 565.94 507.527 561.493L503.668 560.441C502.537 564.587 501.045 568.11 499.214 571.04L502.606 573.16ZM507.524 561.504C508.751 557.107 509.355 552.334 509.355 547.197H505.355C505.355 552.021 504.788 556.428 503.671 560.429L507.524 561.504ZM509.355 547.197C509.355 540.936 508.346 535.281 506.26 530.482L502.591 532.077C504.411 536.262 505.355 541.349 505.355 547.197H509.355ZM506.264 530.491C503.105 523.12 496.949 517.164 488.098 512.336L486.183 515.848C494.52 520.395 499.887 525.767 502.587 532.067L506.264 530.491ZM488.07 512.321C484.047 510.209 475.926 506.847 464.045 502.172L462.58 505.894C474.527 510.595 482.421 513.873 486.211 515.863L488.07 512.321ZM464.009 502.158C457.166 499.617 452.821 497.384 450.797 495.528L448.094 498.476C450.756 500.917 455.786 503.371 462.616 505.908L464.009 502.158ZM450.766 495.501C448.657 493.644 447.832 491.815 447.832 489.873H443.832C443.832 493.205 445.35 496.063 448.124 498.503L450.766 495.501ZM447.832 489.873C447.832 487.791 448.447 486.329 449.7 485.216L447.042 482.226C444.779 484.238 443.832 486.877 443.832 489.873H447.832ZM449.694 485.22C450.864 484.188 452.763 483.475 455.793 483.475V479.475C452.182 479.475 449.198 480.324 447.048 482.221L449.694 485.22ZM455.793 483.475C459.045 483.475 462.661 484.354 466.668 486.218L468.355 482.591C463.963 480.548 459.767 479.475 455.793 479.475V483.475ZM466.668 486.218C470.673 488.08 475.617 491.299 481.635 495.861L484.052 492.674C477.961 488.057 472.749 484.634 468.355 482.591L466.668 486.218ZM484.423 495.495L505.517 468.346L502.358 465.892L481.264 493.04L484.423 495.495ZM505.242 465.604C498.055 459.414 490.145 454.504 481.318 451.093L479.877 454.825C488.237 458.055 495.758 462.715 502.632 468.635L505.242 465.604ZM481.318 451.093C472.491 447.683 463.248 445.973 453.603 446.174L453.686 450.173C462.791 449.984 471.517 451.595 479.877 454.825L481.318 451.093ZM453.601 446.174C444.33 446.376 435.925 448.495 428.414 452.352L430.242 455.91C437.184 452.345 444.99 450.362 453.688 450.173L453.601 446.174ZM428.395 452.362C420.877 456.324 414.946 461.733 410.648 468.487L414.023 470.634C417.928 464.498 423.326 459.555 430.26 455.9L428.395 452.362ZM410.648 468.487C406.325 475.281 404.281 482.887 404.281 491.143H408.281C408.281 483.578 410.144 476.731 414.023 470.634L410.648 468.487ZM404.281 491.143C404.281 495.372 404.684 499.25 405.61 502.956L409.491 501.986C408.659 498.66 408.281 495.116 408.281 491.143H404.281ZM405.61 502.956C406.523 506.607 407.744 509.87 409.18 512.74L412.757 510.951C411.458 508.353 410.336 505.366 409.491 501.986L405.61 502.956ZM409.18 512.74C410.649 515.679 412.629 518.38 414.993 520.847L417.881 518.079C415.753 515.858 414.022 513.481 412.757 510.951L409.18 512.74ZM414.965 520.817C417.302 523.357 419.751 525.502 422.215 527.247L424.527 523.983C422.303 522.408 420.064 520.451 417.909 518.109L414.965 520.817ZM422.171 527.215C424.61 529.045 427.349 530.768 430.582 532.385L432.371 528.807C429.353 527.298 426.819 525.701 424.571 524.015L422.171 527.215ZM430.582 532.385C433.711 533.949 436.612 535.352 439.436 536.461L440.899 532.738C438.255 531.699 435.491 530.367 432.371 528.807L430.582 532.385ZM439.436 536.461C442.215 537.553 445.278 538.639 448.813 539.817L450.078 536.023C446.581 534.857 443.59 533.795 440.899 532.738L439.436 536.461ZM448.79 539.81C456.145 542.359 460.616 544.415 462.657 546.031L465.14 542.895C462.493 540.8 457.394 538.559 450.1 536.03L448.79 539.81ZM462.657 546.031C464.542 547.524 465.414 549.299 465.414 551.592H469.414C469.414 548.025 467.942 545.113 465.14 542.895L462.657 546.031ZM465.414 551.592C465.414 553.513 464.619 555.235 463.049 556.648L465.724 559.621C468.06 557.519 469.414 554.748 469.414 551.592H465.414ZM463.085 556.616C461.54 557.94 459.062 558.771 455.207 558.771V562.771C459.555 562.771 463.131 561.845 465.688 559.653L463.085 556.616ZM455.207 558.771C450.672 558.771 445.676 557.592 440.095 555.133L438.482 558.793C444.425 561.412 449.976 562.771 455.207 562.771V558.771ZM440.095 555.133C434.618 552.719 429.352 548.883 424.212 543.648L421.358 546.45C426.765 551.957 432.437 556.129 438.482 558.793L440.095 555.133ZM421.232 543.788L399.748 570.253L402.853 572.774L424.338 546.309L421.232 543.788ZM399.868 572.909C407.463 580.705 415.887 586.528 425.234 590.448L426.781 586.759C417.964 583.062 409.982 577.557 402.733 570.118L399.868 572.909ZM425.227 590.445C434.46 594.359 444.003 596.268 453.84 596.268V592.268C444.536 592.268 435.524 590.465 426.788 586.762L425.227 590.445Z" fill="url(#paint0_linear)" fill-opacity="0.5"/>
<defs>
<linearGradient id="paint0_linear" x1="213.843" y1="-130.841" x2="638.879" y2="607.131" gradientUnits="userSpaceOnUse">
<stop stop-color="#7D84FF"/>
<stop offset="1" stop-color="#7D84FF" stop-opacity="0"/>
</linearGradient>
</defs>
</svg>
