<svg width="1220" height="626" viewBox="0 0 1220 626" fill="none" xmlns="http://www.w3.org/2000/svg">
<mask id="mask0" mask-type="alpha" maskUnits="userSpaceOnUse" x="0" y="0" width="1220" height="626">
<rect width="1220" height="626" fill="#C4C4C4"/>
</mask>
<g mask="url(#mask0)">
<path d="M1016.03 1072.3L1016.25 1072.4L1016.47 1072.3L1971.52 611.99L2248.33 611.99L1028.82 1201.84L1005.49 1201.84L-215.829 611.99L60.9866 611.99L1016.03 1072.3ZM1017.85 804.058L1018.06 804.162L1018.28 804.058L1418.72 611.99L1695.54 611.99L1018.06 938.984L342.396 611.99L619.215 611.99L1017.85 804.058Z" stroke="url(#paint0_linear)"/>
<path d="M1016.03 160.682L1016.25 160.578L1016.47 160.682L1971.52 620.99L2248.33 620.99L1028.82 31.1377L1005.49 31.1377L-215.829 620.99L60.9866 620.99L1016.03 160.682ZM1017.85 428.922L1018.06 428.817L1018.28 428.921L1418.72 620.99L1695.54 620.99L1018.06 293.995L342.396 620.99L619.215 620.99L1017.85 428.922Z" stroke="url(#paint1_linear)"/>
</g>
<defs>
<linearGradient id="paint0_linear" x1="1445.5" y1="1200.13" x2="512.616" y2="682.949" gradientUnits="userSpaceOnUse">
<stop stop-color="#ED3237"/>
<stop offset="0.967697" stop-color="#ED3237" stop-opacity="0"/>
</linearGradient>
<linearGradient id="paint1_linear" x1="1445.5" y1="32.8523" x2="512.616" y2="550.031" gradientUnits="userSpaceOnUse">
<stop stop-color="#ED3237"/>
<stop offset="0.967697" stop-color="#ED3237" stop-opacity="0"/>
</linearGradient>
</defs>
</svg>
