<svg width="53" height="23" viewBox="0 0 53 23" fill="none" xmlns="http://www.w3.org/2000/svg">
<path d="M4.02542 2.3266L1.23518 6.3352C0.836575 6.73606 0.736923 7.23713 0.736923 7.73821V14.5528L0.637272 14.653C0.437969 14.8535 0.338318 15.1541 0.338318 15.555V16.3567C0.338318 17.6595 1.43448 18.6617 2.72995 18.6617H5.42054L5.52019 18.8621C6.01845 20.8664 7.91182 22.1692 9.90485 22.1692C11.8979 22.1692 13.7913 20.7662 14.2895 18.8621L14.3892 18.6617H37.6079L37.7076 18.8621C38.2058 20.7662 40.0992 22.1692 42.0923 22.1692C44.1849 22.1692 45.9787 20.7662 46.4769 18.8621L46.5766 18.6617H49.6658C50.9612 18.6617 52.0574 17.5593 52.0574 16.3567V15.555C52.0574 15.0539 51.7584 14.4526 51.2602 14.2522L51.1605 14.152V12.8492C51.1605 10.7447 49.5661 9.04101 47.4734 8.74036L37.5083 7.53778C37.309 7.53778 37.1097 7.43756 37.01 7.33735L31.9278 3.72961C29.7355 2.12617 27.2442 1.32444 24.5536 1.22423L16.5815 0.923584L5.81914 1.22423C5.12158 1.22423 4.42402 1.62509 4.02542 2.3266ZM5.81914 15.6552C5.52019 16.1563 5.42054 16.7576 5.32089 17.3589V17.5593H2.72995C2.03239 17.5593 1.53413 17.0582 1.53413 16.3567V15.1541H5.9188L5.81914 15.6552ZM10.0045 21.0668C8.21078 21.0668 6.5167 19.5636 6.5167 17.6595C6.5167 15.8556 8.01147 14.2522 10.0045 14.2522C11.9975 14.2522 13.4923 15.7554 13.4923 17.6595C13.293 19.5636 11.7982 21.0668 10.0045 21.0668ZM42.1919 21.0668C40.3982 21.0668 38.7041 19.5636 38.7041 17.6595C38.7041 15.8556 40.1989 14.2522 42.1919 14.2522C43.9856 14.2522 45.6797 15.7554 45.6797 17.6595C45.58 19.5636 44.0853 21.0668 42.1919 21.0668ZM51.0609 15.2543V16.4569C51.0609 17.0582 50.5626 17.6595 49.8651 17.6595H46.8755V17.4591C46.8755 16.8578 46.6762 16.2565 46.4769 15.7554L46.178 15.2543H51.0609ZM39.7006 9.14122H39.9996L47.5731 10.1434C49.0678 10.3438 50.164 11.5464 50.164 13.0496V14.2522H44.9821H44.8825C44.0853 13.7511 43.1884 13.4505 42.1919 13.4505C39.8003 13.4505 37.8072 15.2543 37.5083 17.5593V17.7597H14.5885V17.5593C14.3892 15.2543 12.2965 13.4505 9.90485 13.4505C8.90834 13.4505 8.11113 13.7511 7.21426 14.2522H7.11461H2.03239V8.23928L39.7006 9.14122ZM24.454 2.3266C26.8456 2.42681 29.1376 3.12832 31.0309 4.53133L35.316 7.73821L22.5606 7.53778L21.3648 2.3266H24.454ZM16.6811 2.12616L20.1689 2.22638L21.2651 7.53778L12.1968 7.23713L13.9906 2.12616H16.6811ZM5.9188 2.42681L12.6951 2.22638L10.9014 7.23713L2.33135 6.93649L5.02193 2.92789C5.22124 2.62724 5.52019 2.52703 5.9188 2.42681Z" fill="#ED3237"/>
<path d="M25.4504 10.444H24.155V11.7468H25.4504V10.444Z" fill="#ED3237"/>
<path d="M14.1898 10.0432H12.8943V11.346H14.1898V10.0432Z" fill="#ED3237"/>
<path d="M42.7898 17.6595C42.7898 17.3589 42.4908 17.0583 42.0922 17.0583C41.7933 17.0583 41.3947 17.3589 41.3947 17.6595C41.3947 17.9602 41.6936 18.2608 42.0922 18.2608C42.4908 18.3611 42.7898 18.1606 42.7898 17.6595Z" fill="#ED3237"/>
<path d="M10.6023 17.6595C10.6023 17.3589 10.3034 17.0583 9.90477 17.0583C9.60582 17.0583 9.20721 17.3589 9.20721 17.6595C9.20721 17.9602 9.50617 18.2608 9.90477 18.2608C10.3034 18.3611 10.6023 18.1606 10.6023 17.6595Z" fill="#ED3237"/>
<path d="M9.20729 10.6445C9.20729 10.3439 9.00799 10.0432 8.50973 10.0432C8.11113 10.0432 8.01147 10.3439 8.01147 10.6445C8.01147 10.9451 8.31043 11.2458 8.70903 11.2458C9.00799 11.346 9.20729 11.0454 9.20729 10.6445Z" fill="#ED3237"/>
</svg>
