<svg width="41" height="33" viewBox="0 0 41 33" fill="none" xmlns="http://www.w3.org/2000/svg">
<path d="M37.5848 31.7089V0.308533H11.8781V5.49208H2.81096V31.6092H0.120728V32.7057H40.275V31.6092H37.5848V31.7089ZM36.4887 1.30537V31.6092H27.8202V24.2326H21.6426V31.6092H12.9741V1.30537H36.4887ZM26.8238 31.7089H22.639V25.3291H26.8238V31.7089ZM3.90699 6.48892H11.9777V31.6092H3.90699V6.48892Z" fill="#ED3237"/>
<path d="M18.7532 3.59811H15.1662V7.18673H18.7532V3.59811ZM17.7568 6.18989H16.1626V4.59495H17.7568V6.18989Z" fill="#ED3237"/>
<path d="M23.9343 3.59811H20.3474V7.18673H23.9343V3.59811ZM22.938 6.18989H21.3437V4.59495H22.938V6.18989Z" fill="#ED3237"/>
<path d="M29.1155 3.59811H25.5286V7.18673H29.1155V3.59811ZM28.1192 6.18989H26.5249V4.59495H28.1192V6.18989Z" fill="#ED3237"/>
<path d="M34.2968 3.59811H30.7098V7.18673H34.2968V3.59811ZM33.3004 6.18989H31.7062V4.59495H33.3004V6.18989Z" fill="#ED3237"/>
<path d="M18.7532 8.6819H15.1662V12.2705H18.7532V8.6819ZM17.7568 11.2737H16.1626V9.77842H17.7568V11.2737Z" fill="#ED3237"/>
<path d="M23.9343 8.6819H20.3474V12.2705H23.9343V8.6819ZM22.938 11.2737H21.3437V9.77842H22.938V11.2737Z" fill="#ED3237"/>
<path d="M29.1155 8.6819H25.5286V12.2705H29.1155V8.6819ZM28.1192 11.2737H26.5249V9.77842H28.1192V11.2737Z" fill="#ED3237"/>
<path d="M34.2968 8.6819H30.7098V12.2705H34.2968V8.6819ZM33.3004 11.2737H31.7062V9.77842H33.3004V11.2737Z" fill="#ED3237"/>
<path d="M18.7532 13.9652H15.1662V17.5538H18.7532V13.9652ZM17.7568 16.4573H16.1626V14.8623H17.7568V16.4573Z" fill="#ED3237"/>
<path d="M23.9343 13.9652H20.3474V17.5538H23.9343V13.9652ZM22.938 16.4573H21.3437V14.8623H22.938V16.4573Z" fill="#ED3237"/>
<path d="M29.1155 13.9652H25.5286V17.5538H29.1155V13.9652ZM28.1192 16.4573H26.5249V14.8623H28.1192V16.4573Z" fill="#ED3237"/>
<path d="M34.2968 13.9652H30.7098V17.5538H34.2968V13.9652ZM33.3004 16.4573H31.7062V14.8623H33.3004V16.4573Z" fill="#ED3237"/>
<path d="M18.7532 19.0491H15.1662V22.6377H18.7532V19.0491ZM17.7568 21.7405H16.1626V20.1456H17.7568V21.7405Z" fill="#ED3237"/>
<path d="M23.9343 19.0491H20.3474V22.6377H23.9343V19.0491ZM22.938 21.7405H21.3437V20.1456H22.938V21.7405Z" fill="#ED3237"/>
<path d="M29.1155 19.0491H25.5286V22.6377H29.1155V19.0491ZM28.1192 21.7405H26.5249V20.1456H28.1192V21.7405Z" fill="#ED3237"/>
<path d="M34.2968 19.0491H30.7098V22.6377H34.2968V19.0491ZM33.3004 21.7405H31.7062V20.1456H33.3004V21.7405Z" fill="#ED3237"/>
<path d="M18.7532 24.2326H15.1662V27.8212H18.7532V24.2326ZM17.7568 26.8244H16.1626V25.2294H17.7568V26.8244Z" fill="#ED3237"/>
<path d="M34.2968 24.2326H30.7098V27.8212H34.2968V24.2326ZM33.3004 26.8244H31.7062V25.2294H33.3004V26.8244Z" fill="#ED3237"/>
<path d="M6.09906 8.6819V12.2705H9.68604V8.6819H6.09906ZM8.68966 11.2737H7.09544V9.77842H8.68966V11.2737Z" fill="#ED3237"/>
<path d="M6.09906 17.5538H9.68604V13.9652H6.09906V17.5538ZM7.09544 14.962H8.68966V16.5569H7.09544V14.962Z" fill="#ED3237"/>
<path d="M6.09906 22.7373H9.68604V19.1487H6.09906V22.7373ZM7.09544 20.1455H8.68966V21.7405H7.09544V20.1455Z" fill="#ED3237"/>
<path d="M6.09906 27.9209H9.68604V24.2326H6.09906V27.9209ZM7.09544 25.3291H8.68966V26.9241H7.09544V25.3291Z" fill="#ED3237"/>
</svg>
