<svg width="40" height="34" viewBox="0 0 40 34" fill="none" xmlns="http://www.w3.org/2000/svg">
<path d="M39.1687 0.457275H1.3778C1.07945 0.457275 0.880554 0.655188 0.880554 0.952057V5.89987C0.880554 6.19674 1.07945 6.39465 1.3778 6.39465H2.5712V29.1546V32.6181C2.5712 32.9149 2.7701 33.1129 3.06845 33.1129C3.3668 33.1129 3.5657 32.9149 3.5657 32.6181V29.6494H36.6824V32.6181C36.6824 32.9149 36.8813 33.1129 37.1797 33.1129C37.478 33.1129 37.6769 32.9149 37.6769 32.6181V29.1546V6.39465H38.8703C39.1687 6.39465 39.3676 6.19674 39.3676 5.89987V0.952057C39.6659 0.655188 39.467 0.457275 39.1687 0.457275ZM36.7819 28.6598H3.76459V6.49361H36.8813L36.7819 28.6598ZM38.572 5.40509H37.3786H3.1679H1.9745V1.54579H38.572V5.40509Z" fill="#ED3237"/>
<path d="M6.25085 16.4882H17.5881C17.8865 16.4882 18.0854 16.2902 18.0854 15.9934V9.26434C18.0854 8.96747 17.8865 8.76956 17.5881 8.76956H6.25085C5.9525 8.76956 5.7536 8.96747 5.7536 9.26434V15.9934C5.7536 16.1913 5.9525 16.4882 6.25085 16.4882ZM6.7481 9.75912H16.9914V15.3996H6.7481V9.75912Z" fill="#ED3237"/>
<path d="M22.9583 16.4882H34.2956C34.594 16.4882 34.7929 16.2902 34.7929 15.9934V9.26434C34.7929 8.96747 34.594 8.76956 34.2956 8.76956H22.9583C22.66 8.76956 22.4611 8.96747 22.4611 9.26434V15.9934C22.3616 16.1913 22.66 16.4882 22.9583 16.4882ZM23.4556 9.75912H33.6989V15.3996H23.4556V9.75912Z" fill="#ED3237"/>
<path d="M6.25085 26.4828H34.2957C34.594 26.4828 34.7929 26.2849 34.7929 25.988V19.259C34.7929 18.9621 34.594 18.7642 34.2957 18.7642H6.25085C5.9525 18.7642 5.7536 18.9621 5.7536 19.259V25.988C5.7536 26.2849 5.9525 26.4828 6.25085 26.4828ZM6.7481 19.7538H33.699V25.3943H6.7481V19.7538Z" fill="#ED3237"/>
<path d="M11.9195 13.6185C12.4687 13.6185 12.914 13.1754 12.914 12.6289C12.914 12.0824 12.4687 11.6393 11.9195 11.6393C11.3702 11.6393 10.925 12.0824 10.925 12.6289C10.925 13.1754 11.3702 13.6185 11.9195 13.6185Z" fill="#ED3237"/>
<path d="M28.627 13.6185C29.1762 13.6185 29.6215 13.1754 29.6215 12.6289C29.6215 12.0824 29.1762 11.6393 28.627 11.6393C28.0778 11.6393 27.6325 12.0824 27.6325 12.6289C27.6325 13.1754 28.0778 13.6185 28.627 13.6185Z" fill="#ED3237"/>
<path d="M20.2732 23.613C20.8225 23.613 21.2677 23.1699 21.2677 22.6234C21.2677 22.0769 20.8225 21.6339 20.2732 21.6339C19.724 21.6339 19.2787 22.0769 19.2787 22.6234C19.2787 23.1699 19.724 23.613 20.2732 23.613Z" fill="#ED3237"/>
</svg>
