<svg width="54" height="53" viewBox="0 0 54 53" fill="none" xmlns="http://www.w3.org/2000/svg">
<path d="M37.0741 46.5357C37.0741 49.8357 39.7741 52.4357 42.9741 52.4357C46.2741 52.4357 48.8741 49.7357 48.8741 46.5357C48.8741 43.2357 46.1741 40.6357 42.9741 40.6357C39.7741 40.6357 37.0741 43.2357 37.0741 46.5357ZM38.7741 46.5357C38.7741 44.2357 40.6741 42.3357 42.9741 42.3357C45.2741 42.3357 47.1741 44.2357 47.1741 46.5357C47.1741 48.8357 45.2741 50.7357 42.9741 50.7357C40.6741 50.8357 38.7741 48.8357 38.7741 46.5357Z" fill="#ED3237"/>
<path d="M40.4741 46.5356C40.4741 47.9356 41.5741 49.0356 42.9741 49.0356C44.3741 49.0356 45.4741 47.9356 45.4741 46.5356C45.4741 45.1356 44.3741 44.0356 42.9741 44.0356C41.5741 44.0356 40.4741 45.1356 40.4741 46.5356ZM42.1741 46.5356C42.1741 46.0356 42.5741 45.7356 42.9741 45.7356C43.3741 45.7356 43.7741 46.1356 43.7741 46.5356C43.7741 47.0356 43.3741 47.3356 42.9741 47.3356C42.5741 47.3356 42.1741 47.0356 42.1741 46.5356Z" fill="#ED3237"/>
<path d="M4.77411 46.5357C4.77411 49.8357 7.47411 52.4357 10.6741 52.4357C12.8741 52.4357 14.7741 51.2357 15.7741 49.5357C16.7741 51.2357 18.6741 52.4357 20.8741 52.4357C24.1741 52.4357 26.7741 49.7357 26.7741 46.5357C26.7741 43.2357 24.0741 40.6357 20.8741 40.6357C18.6741 40.6357 16.7741 41.8357 15.7741 43.5357C14.7741 41.8357 12.8741 40.6357 10.6741 40.6357C7.47411 40.6357 4.77411 43.2357 4.77411 46.5357ZM16.6741 46.5357C16.6741 44.2357 18.5741 42.3357 20.8741 42.3357C23.1741 42.3357 25.0741 44.2357 25.0741 46.5357C25.0741 48.8357 23.1741 50.7357 20.8741 50.7357C18.5741 50.7357 16.6741 48.8357 16.6741 46.5357ZM6.47411 46.5357C6.47411 44.2357 8.37411 42.3357 10.6741 42.3357C12.9741 42.3357 14.8741 44.2357 14.8741 46.5357C14.8741 48.8357 12.9741 50.7357 10.6741 50.7357C8.37411 50.7357 6.47411 48.8357 6.47411 46.5357Z" fill="#ED3237"/>
<path d="M8.17407 46.5356C8.17407 47.9356 9.27407 49.0356 10.6741 49.0356C12.0741 49.0356 13.1741 47.9356 13.1741 46.5356C13.1741 45.1356 12.0741 44.0356 10.6741 44.0356C9.27407 44.0356 8.17407 45.1356 8.17407 46.5356ZM9.87407 46.5356C9.87407 46.0356 10.2741 45.7356 10.6741 45.7356C11.1741 45.7356 11.4741 46.1356 11.4741 46.5356C11.4741 47.0356 11.0741 47.3356 10.6741 47.3356C10.2741 47.4356 9.87407 47.0356 9.87407 46.5356Z" fill="#ED3237"/>
<path d="M18.3741 46.5356C18.3741 47.9356 19.4741 49.0356 20.8741 49.0356C22.2741 49.0356 23.3741 47.9356 23.3741 46.5356C23.3741 45.1356 22.2741 44.0356 20.8741 44.0356C19.5741 44.0356 18.3741 45.1356 18.3741 46.5356ZM20.0741 46.5356C20.0741 46.0356 20.4741 45.7356 20.8741 45.7356C21.2741 45.7356 21.6741 46.1356 21.6741 46.5356C21.6741 47.0356 21.2741 47.3356 20.8741 47.3356C20.4741 47.3356 20.0741 47.0356 20.0741 46.5356Z" fill="#ED3237"/>
<path d="M36.2741 44.0356H27.7741V45.7356H36.2741V44.0356Z" fill="#ED3237"/>
<path d="M29.4741 37.2357H0.574097V43.1357C0.574097 44.5357 1.6741 45.6357 3.0741 45.6357H3.8741V44.0357H3.0741C2.5741 44.0357 2.2741 43.6357 2.2741 43.2357V39.0357H31.1741V26.1357H41.9741C43.1741 26.1357 44.2741 27.0357 44.4741 28.1357L45.7741 34.4357L49.7741 35.5357C50.8741 35.8357 51.5741 36.8357 51.5741 37.9357V43.0357C51.5741 43.5357 51.1741 43.8357 50.7741 43.8357H49.9741V45.5357H50.7741C52.1741 45.5357 53.2741 44.4357 53.2741 43.0357V38.0357C53.2741 36.1357 51.9741 34.4357 50.1741 33.9357L47.1741 33.0357L46.1741 27.7357C45.7741 25.7357 44.0741 24.3357 41.9741 24.3357H29.4741V37.2357Z" fill="#ED3237"/>
<path d="M32.7741 34.6356H43.7741V32.7356L43.0741 29.1356C42.8741 28.3356 42.1741 27.7356 41.3741 27.7356H32.7741V34.6356ZM34.4741 29.5356H41.3741L42.0741 32.9356H34.4741V29.5356Z" fill="#ED3237"/>
<path d="M0.574097 11.7356V35.5356H27.7741V11.7356H0.574097ZM18.3741 18.5356H9.8741V13.4356H18.3741V18.5356ZM9.8741 28.7356H18.3741V33.8356H9.8741V28.7356ZM2.2741 13.4356H8.1741V20.2356H20.0741V13.4356H25.9741V33.8356H20.0741V27.0356H8.1741V33.8356H2.2741V13.4356Z" fill="#ED3237"/>
<path d="M38.4741 11.5356L46.0741 5.83564L38.4741 0.0356445L37.3741 1.43564L43.2741 5.83564L37.3741 10.2356L38.4741 11.5356Z" fill="#ED3237"/>
<path d="M37.0741 2.43555H21.7741V4.13555H37.0741V2.43555Z" fill="#ED3237"/>
<path d="M20.0741 2.43555H18.3741V4.13555H20.0741V2.43555Z" fill="#ED3237"/>
<path d="M37.0741 7.53564H23.4741V9.23564H37.0741V7.53564Z" fill="#ED3237"/>
<path d="M21.7741 7.53564H20.0741V9.23564H21.7741V7.53564Z" fill="#ED3237"/>
</svg>
