<svg width="56" height="67" viewBox="0 0 56 67" fill="none" xmlns="http://www.w3.org/2000/svg">
<path d="M41.4741 57.9999L41.1741 54.3999L39.0741 54.8999L38.5741 55.2999L37.7741 55.0999L36.0741 55.8999L33.7741 56.1999L31.0741 55.6999L28.8741 55.8999L26.8741 55.0999L25.0741 57.5999V59.3999L26.6741 60.4999L29.0741 61.1999L32.4741 63.2999L34.2741 63.5999L35.1741 64.6999L35.8741 65.6999L38.8741 66.1999L39.8741 64.4999L41.1741 63.1999L40.7741 62.5999L40.4741 61.2999L39.7741 60.4999L40.1741 58.8999L41.4741 57.9999ZM38.1741 60.7999L39.1741 61.8999L39.3741 62.7999V62.8999L38.7741 63.4999L38.1741 64.5999L36.7741 64.3999L35.0741 62.3999L33.0741 61.9999L29.6741 59.9999L27.2741 59.2999L26.3741 58.6999V58.1999L27.2741 56.9999L28.5741 57.4999L30.9741 57.2999L33.7741 57.7999L36.4741 57.4999L37.9741 56.7999L39.0741 57.0999L39.8741 56.2999L39.9741 57.2999L38.9741 57.9999L38.1741 60.7999Z" fill="#ED3237"/>
<path d="M13.3741 38.5L13.5741 37.1L11.7741 36L10.2741 36.6L9.07407 37.6L8.27407 38L6.07407 37.7L5.17407 40.7L6.27407 41.8L6.17407 44L6.57407 45L6.27407 45.1V46L5.67407 49L6.47407 50.3L7.27407 52L10.1741 51.2L10.4741 50.2L11.9741 50.7L14.0741 42.5L14.5741 41.4L14.0741 40L13.3741 38.5ZM8.07407 50.2L7.87407 49.6L7.27407 48.7L7.77407 46.2V46L8.57407 45.5L7.87407 44.4L7.57407 43.7L7.67407 41.3L6.67407 40.2L6.97407 39.3L8.27407 39.5L9.57407 38.9L10.7741 37.9L11.4741 37.7L11.8741 37.9L11.7741 38.8L12.7741 40.4L12.9741 41.1L12.6741 41.8L10.8741 48.7L9.37407 48.2L8.87407 49.9L8.07407 50.2Z" fill="#ED3237"/>
<path d="M53.2741 39.4L51.1741 38.3L47.9741 36.5L44.1741 35L43.6741 34.7L44.8741 32.1L40.4741 31.7L37.4741 31.1L36.9741 30.3L34.9741 28.5L33.6741 25.9L33.0741 23.9L32.2741 21.9L29.9741 20.4L27.3741 18.5L26.5741 17L26.4741 15.4L27.0741 15.3L27.6741 13.6L27.0741 13.1L26.4741 11.4L27.0741 10.8L30.6741 10.2L31.9741 10.7L33.9741 10.1L32.0741 7.6L31.8741 7.2L33.0741 5.9L31.6741 5.5L32.9741 3.6L27.6741 3H26.7741L26.4741 2.3L26.0741 0L23.5741 0.8H21.9741L20.1741 2L19.4741 1.8L17.5741 1.5L16.9741 3.3V3.4L13.6741 3.6L12.2741 4.2L11.3741 7.2L10.8741 6.7L9.7741 4L7.6741 5.6L6.6741 6.9L5.9741 6.2L3.3741 6.5L2.0741 7L1.2741 8L1.9741 9.2L2.5741 10.5L2.6741 10.6L2.5741 10.8L1.7741 11.2H1.0741L0.0740967 11.9L0.574097 13L1.6741 14.8L1.4741 15L1.3741 16.6L4.5741 18.6L4.9741 19.3L7.8741 19.7L10.0741 17.7L11.8741 18.3L14.5741 20.1L15.2741 20L15.9741 21.6L17.1741 26.9L17.8741 27.1V27.6L19.5741 29L19.2741 30.5L21.3741 30.6L21.8741 30.9L26.6741 36.3L28.0741 36.9L28.8741 38L30.2741 37.6L31.3741 38L32.0741 37.9L33.4741 40.6L34.4741 40.5L34.3741 42L37.0741 41.4L37.5741 42.2L36.9741 43.3L39.3741 44.9L40.5741 45.2L41.2741 45L41.6741 45.5L42.1741 47.6L42.7741 48.4L43.8741 51.1L43.5741 51.9L42.2741 52.8L42.4741 53.9L41.2741 55.3L41.4741 57.5L43.9741 58.1L47.2741 53.6L47.3741 52.1L49.7741 51.4L49.8741 48.9V47.3L46.7741 45.5L47.1741 44.4L47.0741 43.9L47.9741 42.2L48.8741 42.3L51.7741 42.8L52.3741 43.7L54.7741 46.2L55.7741 43.9V42L53.2741 39.4ZM54.1741 43.4L53.4741 42.7L52.6741 41.4L48.9741 40.7L47.0741 40.5L45.8741 42.7L45.3741 43L45.4741 44.1L44.8741 46.1L48.2741 48.1V50.2L45.9741 51L45.8741 53.1L43.3741 56.5L42.8741 56.4V55.9L44.1741 54.2L43.9741 53.4L44.8741 52.8L45.4741 51L44.1741 47.7L43.6741 47L42.7741 43.3L42.2741 43.6L41.9741 43.2L40.6741 43.6L40.2741 43.5L39.2741 42.8L39.1741 42.7L39.2741 42.5V41.8L37.9741 39.6L36.1741 40L36.2741 38.7L34.3741 39L32.9741 36.2L31.6741 36.4L30.3741 35.9L29.4741 36.2L29.0741 35.6L27.6741 35L22.9741 29.8L21.8741 29.1H21.1741L21.2741 28.5L19.3741 26.9V25.9L18.3741 25.7L17.3741 21.3L16.1741 18.5L14.9741 18.7L12.0741 16.8L11.8741 16.9L9.8741 16.1L7.4741 18.2L5.9741 18L5.7741 17.7L2.9741 15.9V15.8L3.8741 15L2.4741 12.8L4.1741 11.9L4.5741 10.5L4.0741 9.5L3.8741 9.4L3.3741 8.4L3.2741 8.1L3.5741 8L5.3741 7.8L6.8741 9.1L8.4741 6.8L9.0741 6.3L9.5741 7.4L11.2741 9.2L12.6741 8.4L13.6741 5.3L14.0741 5.1L19.1741 4.8L18.6741 3.3V3.2L19.1741 3.3L20.4741 3.7L22.4741 2.4H23.6741L24.9741 2L25.1741 2.7L25.8741 4.5L27.5741 4.6L30.4741 5L29.2741 6.6L30.2741 6.9L30.0741 7.1L30.6741 8.6L31.0741 9L30.6741 8.9L26.2741 9.6L24.7741 11.2L25.6741 14L25.7741 14.2L24.7741 14.4L24.9741 17.6L26.0741 19.7L29.0741 21.9L30.9741 23.1L31.5741 24.6L32.2741 26.6L33.6741 29.4L35.7741 31.3L36.5741 32.5L40.2741 33.2L42.6741 33.4L41.8741 35.4L43.6741 36.4L47.4741 37.8L50.5741 39.6L52.4741 40.5L54.3741 42.4V43.4H54.1741Z" fill="#ED3237"/>
</svg>
