<svg width="58" height="58" viewBox="0 0 58 58" fill="none" xmlns="http://www.w3.org/2000/svg">
<path d="M53.8241 50.1463H45.2241V30.1463C45.2241 28.5463 43.9241 27.2463 42.3241 27.2463H15.5241C13.9241 27.2463 12.6241 28.5463 12.6241 30.1463V50.2463H4.02412C1.92412 50.2463 0.224121 51.9463 0.224121 54.0463C0.224121 56.1463 1.92412 57.8463 4.02412 57.8463H53.7241C55.8241 57.8463 57.5241 56.1463 57.5241 54.0463C57.6241 51.8463 55.9241 50.1463 53.8241 50.1463ZM36.5241 29.1463H42.2241C42.7241 29.1463 43.2241 29.5463 43.2241 30.1463V50.2463H36.5241V29.1463ZM20.3241 29.1463H24.1241V36.8463H20.3241V29.1463ZM14.5241 30.1463C14.5241 29.6463 14.9241 29.1463 15.5241 29.1463H18.4241V38.7463H26.1241V29.1463H34.7241V50.1463H14.5241V30.1463ZM5.52412 55.9463H4.02412C2.92412 55.9463 2.12412 55.0463 2.12412 54.0463C2.12412 52.9463 3.02412 52.1463 4.02412 52.1463H5.52412C4.82412 53.2463 4.82412 54.7463 5.52412 55.9463ZM8.82412 55.9463C7.72412 55.9463 6.92412 55.0463 6.92412 54.0463C6.92412 52.9463 7.82412 52.1463 8.82412 52.1463C9.82412 52.1463 10.7241 53.0463 10.7241 54.0463C10.7241 55.0463 9.92412 55.9463 8.82412 55.9463ZM18.9241 55.9463H12.1241C12.8241 54.7463 12.8241 53.3463 12.1241 52.1463H18.9241C18.2241 53.2463 18.2241 54.7463 18.9241 55.9463ZM22.2241 55.9463C21.1241 55.9463 20.3241 55.0463 20.3241 54.0463C20.3241 52.9463 21.2241 52.1463 22.2241 52.1463C23.2241 52.1463 24.1241 53.0463 24.1241 54.0463C24.1241 55.0463 23.3241 55.9463 22.2241 55.9463ZM32.3241 55.9463H25.5241C26.2241 54.7463 26.2241 53.3463 25.5241 52.1463H32.3241C31.6241 53.2463 31.6241 54.7463 32.3241 55.9463ZM35.6241 55.9463C34.5241 55.9463 33.7241 55.0463 33.7241 54.0463C33.7241 52.9463 34.6241 52.1463 35.6241 52.1463C36.7241 52.1463 37.5241 53.0463 37.5241 54.0463C37.5241 55.0463 36.6241 55.9463 35.6241 55.9463ZM45.7241 55.9463H38.9241C39.6241 54.7463 39.6241 53.3463 38.9241 52.1463H45.7241C45.0241 53.2463 45.0241 54.7463 45.7241 55.9463ZM49.0241 55.9463C47.9241 55.9463 47.1241 55.0463 47.1241 54.0463C47.1241 52.9463 48.0241 52.1463 49.0241 52.1463C50.1241 52.1463 50.9241 53.0463 50.9241 54.0463C50.9241 55.0463 50.0241 55.9463 49.0241 55.9463ZM53.8241 55.9463H52.3241C53.0241 54.7463 53.0241 53.3463 52.3241 52.1463H53.8241C54.9241 52.1463 55.7241 53.0463 55.7241 54.0463C55.7241 55.0463 54.8241 55.9463 53.8241 55.9463Z" fill="#ED3237"/>
<path d="M48.8241 32.1464C48.9241 31.1464 49.0241 30.1464 49.0241 29.1464C49.0241 18.0464 40.0241 9.04639 28.9241 9.04639C17.8241 9.04639 8.8241 18.0464 8.8241 29.1464C8.8241 30.1464 8.9241 31.1464 9.0241 32.1464L10.9241 31.8464C10.8241 30.9464 10.7241 30.0464 10.7241 29.1464C10.7241 19.1464 18.9241 10.9464 28.9241 10.9464C38.9241 10.9464 47.1241 19.1464 47.1241 29.1464C47.1241 30.0464 47.0241 30.9464 46.9241 31.8464L48.8241 32.1464Z" fill="#ED3237"/>
<path d="M10.7241 41.5464H5.92413V43.4464H10.7241V41.5464Z" fill="#ED3237"/>
<path d="M8.82415 45.4463H3.12415V47.3463H8.82415V45.4463Z" fill="#ED3237"/>
<path d="M28.9241 13.8462C27.2241 13.8462 25.4241 14.1462 23.8241 14.7462L24.4241 16.5462C31.0241 14.2462 38.3241 17.3462 41.1241 23.8462L42.9241 23.0462C40.5241 17.4462 35.0241 13.8462 28.9241 13.8462Z" fill="#ED3237"/>
<path d="M19.8241 19.3462C20.7241 18.5462 21.6241 17.8462 22.7241 17.3462L21.8241 15.6462C20.6241 16.2462 19.5241 17.0462 18.5241 17.9462L19.8241 19.3462Z" fill="#ED3237"/>
<path d="M16.6241 23.7463C17.0241 22.8463 17.5241 21.8463 18.2241 21.0463L16.7241 19.9463C16.0241 20.8463 15.4241 21.9463 14.9241 23.0463L16.6241 23.7463Z" fill="#ED3237"/>
<path d="M54.5241 24.1463L53.6241 20.6463L55.4241 17.6463L52.1241 11.9463L48.6241 12.0463L46.0241 9.44629L46.1241 5.94629L40.4241 2.64629L37.4241 4.44629L33.9241 3.54629L32.2241 0.446289H25.6241L23.9241 3.54629L20.4241 4.44629L17.4241 2.64629L11.7241 5.94629L11.8241 9.44629L9.22412 12.0463L5.72412 11.9463L2.42412 17.6463L4.22412 20.6463L3.32412 24.1463L0.224121 25.8463V32.4463L3.32412 34.1463L4.32412 38.0463L6.22412 37.5463L4.92412 32.8463L2.12412 31.3463V26.9463L4.92412 25.4463L6.32412 20.3463L4.62412 17.6463L6.82412 13.8463L9.92412 13.9463L13.7241 10.1463L13.6241 7.04629L17.4241 4.84629L20.1241 6.54629L25.2241 5.14629L26.7241 2.34629H31.1241L32.6241 5.14629L37.7241 6.54629L40.4241 4.84629L44.2241 7.04629L44.1241 10.1463L47.8241 13.9463L51.0241 13.8463L53.2241 17.6463L51.5241 20.3463L52.9241 25.4463L55.7241 26.9463V31.3463L52.9241 32.8463L51.6241 37.5463L53.5241 38.0463L54.5241 34.1463L57.6241 32.4463V25.8463L54.5241 24.1463Z" fill="#ED3237"/>
</svg>
