<svg width="56" height="54" viewBox="0 0 56 54" fill="none" xmlns="http://www.w3.org/2000/svg">
<path d="M30.462 0.998779C22.162 0.998779 15.462 7.69878 15.462 15.9988C15.462 24.2988 22.162 30.9988 30.462 30.9988C38.762 30.9988 45.462 24.2988 45.462 15.9988C45.462 7.69878 38.762 0.998779 30.462 0.998779ZM30.462 28.9988C23.262 28.9988 17.362 23.0988 17.362 15.8988C17.362 8.69878 23.262 2.89878 30.462 2.89878C37.662 2.89878 43.462 8.79878 43.562 15.8988C43.562 23.1988 37.662 28.9988 30.462 28.9988Z" fill="#ED3237"/>
<path d="M54.462 35.3988C54.362 35.2988 54.362 35.1988 54.262 35.0988C53.062 33.5988 50.962 33.1988 49.262 34.0988H49.162L47.862 32.5988C46.862 31.3988 45.062 31.0988 43.662 31.9988L42.362 32.7988L41.662 31.9988C40.662 30.7988 38.862 30.4988 37.462 31.3988L29.462 36.5988L20.562 32.8988C17.862 31.7988 14.662 32.1988 12.362 34.0988L1.06199 43.0988C0.861987 43.2988 0.661987 43.4988 0.661987 43.6988C0.661987 43.9988 0.661987 44.1988 0.861987 44.3988C1.16199 44.7988 1.76199 44.8988 2.16199 44.5988C2.16199 44.5988 2.26199 44.5988 2.26199 44.4988L13.562 35.4988C15.362 34.0988 17.762 33.6988 19.862 34.5988L35.462 40.9988C36.562 41.4988 37.062 42.7988 36.562 43.7988C36.062 44.7988 34.962 45.2988 33.862 44.8988L23.362 40.9988C23.162 40.8988 22.862 40.8988 22.662 40.9988C22.462 41.0988 22.262 41.2988 22.162 41.4988C22.062 41.6988 22.062 41.9988 22.162 42.1988C22.262 42.3988 22.462 42.5988 22.662 42.6988H22.762L33.362 46.8988C33.862 47.0988 34.362 47.1988 34.862 47.1988C37.062 47.1988 38.862 45.4988 38.962 43.2988V43.1988L39.162 43.0988L50.162 35.8988C50.662 35.5988 51.262 35.4988 51.762 35.5988C52.362 35.6988 52.762 36.0988 53.062 36.4988C53.662 37.3988 53.362 38.6988 52.562 39.2988L37.362 50.0988C35.362 51.4988 32.962 51.8988 30.662 51.2988L18.062 47.6988C17.462 47.4988 16.762 47.3988 16.062 47.3988C14.362 47.3988 12.762 47.9988 11.462 48.9988L8.06199 51.7988C7.86199 51.9988 7.76199 52.1988 7.76199 52.4988C7.76199 52.7988 7.86199 52.9988 7.96199 53.1988C8.16199 53.3988 8.36199 53.4988 8.66199 53.4988C8.86199 53.4988 9.06199 53.3988 9.26199 53.2988L12.662 50.4988C13.962 49.3988 15.762 48.9988 17.462 49.4988L30.062 52.9988C32.962 53.7988 35.962 53.2988 38.362 51.4988L53.362 40.8988C55.262 39.7988 55.762 37.1988 54.462 35.3988ZM33.962 38.4988L31.562 37.4988L38.462 32.9988C38.962 32.6988 39.662 32.7988 40.062 33.1988L40.662 33.8988L33.962 38.4988ZM47.362 35.3988L38.262 41.2988L38.162 41.1988C37.762 40.3988 37.062 39.7988 36.262 39.4988L36.062 39.3988L44.662 33.7988C45.162 33.4988 45.862 33.5988 46.262 33.9988L47.362 35.3988Z" fill="#ED3237"/>
<path d="M34.262 9.79873C33.362 9.59873 32.562 9.39873 31.662 9.29873H31.562V7.69873C31.562 7.19873 31.162 6.69873 30.562 6.69873C29.962 6.69873 29.562 7.09873 29.562 7.69873V9.29873H29.462C26.562 9.69873 26.262 11.6987 26.262 12.4987C26.262 14.5987 28.462 15.4987 29.862 16.0987L30.662 16.3987C32.062 16.9987 32.762 17.3987 32.762 18.3987C32.762 19.4987 32.062 19.9987 30.662 20.0987H30.462C29.162 19.9987 27.962 19.6987 26.762 19.1987C26.662 19.0987 26.462 19.0987 26.362 19.0987C26.262 19.0987 26.162 19.0987 25.962 19.1987C25.762 19.2987 25.562 19.4987 25.462 19.6987C25.362 19.8987 25.362 20.1987 25.462 20.3987C25.562 20.5987 25.762 20.7987 25.962 20.8987H26.062C27.162 21.2987 28.362 21.5987 29.562 21.7987H29.662V23.3987C29.662 23.8987 30.062 24.3987 30.662 24.3987C31.262 24.3987 31.662 23.9987 31.662 23.3987V21.9987H31.762C33.662 21.5987 34.862 20.2987 34.862 18.4987C34.862 15.9987 32.762 15.1987 31.562 14.6987L30.962 14.3987C29.962 13.9987 28.462 13.3987 28.462 12.4987C28.462 12.2987 28.462 11.9987 28.662 11.6987C28.962 11.2987 29.662 11.1987 30.662 11.1987C31.762 11.1987 32.762 11.3987 33.862 11.6987C34.362 11.7987 34.862 11.4987 35.062 10.9987C35.162 10.3987 34.862 9.89873 34.262 9.79873Z" fill="#ED3237"/>
</svg>
