<svg width="49" height="49" viewBox="0 0 49 49" fill="none" xmlns="http://www.w3.org/2000/svg">
<path d="M35.4761 47.5188V32.2188L35.5761 32.1188C44.0761 24.2188 48.9761 13.1188 48.9761 1.6188C48.9761 1.0188 48.4761 0.518799 47.8761 0.518799C36.2761 0.518799 25.1761 5.4188 17.2761 13.9188L17.1761 14.0188H1.97612C1.57612 14.0188 1.17612 14.3188 0.976122 14.7188C0.776122 15.1188 0.876122 15.5188 1.17612 15.9188L10.0761 24.8188L9.97612 25.0188C9.07612 27.0188 8.27612 29.1188 7.77612 31.2188C7.67612 31.6188 7.77612 32.0188 8.07612 32.3188L17.3761 41.6188C17.6761 41.9188 18.0761 42.0188 18.4761 41.9188C20.5761 41.3188 22.6761 40.6188 24.6761 39.7188L24.8761 39.6188L33.7761 48.5188C34.0761 48.8188 34.5761 48.9188 34.9761 48.7188C35.1761 48.3188 35.4761 47.9188 35.4761 47.5188ZM34.4761 5.1188C38.3761 3.7188 42.3761 2.9188 46.4761 2.8188H46.7761V3.1188C46.6761 7.2188 45.8761 11.2188 44.4761 15.1188L44.3761 15.5188L34.0761 5.2188L34.4761 5.1188ZM4.67612 16.2188H15.3761L15.0761 16.6188C13.6761 18.4188 12.3761 20.4188 11.2761 22.4188L11.0761 22.7188L4.67612 16.2188ZM33.2761 44.8188L26.7761 38.3188L27.0761 38.1188C29.0761 37.0188 31.0761 35.7188 32.8761 34.3188L33.2761 34.0188V44.8188ZM18.5761 39.3188H18.4761L10.1761 31.0188V30.9188C13.3761 19.9188 21.2761 10.9188 31.7761 6.2188L31.8761 6.1188L43.3761 17.5188L43.2761 17.7188C38.5761 28.2188 29.4761 36.1188 18.5761 39.3188Z" fill="#ED3237"/>
<path d="M7.3761 41.0188C7.0761 41.0188 6.7761 41.1188 6.5761 41.3188L1.1761 46.7188C0.976099 46.9188 0.876099 47.2188 0.876099 47.5188C0.876099 47.8188 0.976099 48.1188 1.1761 48.3188C1.5761 48.7188 2.2761 48.7188 2.7761 48.3188L8.1761 42.9188C8.3761 42.7188 8.4761 42.4188 8.4761 42.1188C8.4761 41.8188 8.3761 41.5188 8.1761 41.3188C7.9761 41.1188 7.6761 41.0188 7.3761 41.0188Z" fill="#ED3237"/>
<path d="M13.8761 43.4189C13.8761 43.1189 13.7761 42.8188 13.5761 42.6188C13.1761 42.2188 12.4761 42.2188 11.9761 42.6188L7.97615 46.6188C7.57615 47.0188 7.57615 47.7189 7.97615 48.2189C8.37615 48.6189 9.07615 48.6189 9.57615 48.2189L13.5761 44.2188C13.7761 44.0188 13.8761 43.7189 13.8761 43.4189Z" fill="#ED3237"/>
<path d="M6.7761 37.4188C6.9761 37.2188 7.0761 36.9188 7.0761 36.6188C7.0761 36.3188 6.9761 36.0188 6.7761 35.8188C6.5761 35.6188 6.2761 35.5188 5.9761 35.5188C5.6761 35.5188 5.3761 35.6188 5.1761 35.8188L1.1761 39.8188C0.976099 40.1188 0.876099 40.4188 0.876099 40.7188C0.876099 41.0188 0.976099 41.3188 1.1761 41.5188C1.5761 41.9188 2.2761 41.9188 2.7761 41.5188L6.7761 37.4188Z" fill="#ED3237"/>
<path d="M27.5761 15.3188C23.9761 15.3188 21.0761 18.2188 21.0761 21.8188C21.0761 25.4188 23.9761 28.3188 27.5761 28.3188C31.1761 28.3188 34.0761 25.4188 34.0761 21.8188C34.0761 18.2188 31.1761 15.3188 27.5761 15.3188ZM27.5761 26.1188C25.1761 26.1188 23.2761 24.2188 23.2761 21.8188C23.2761 19.4188 25.1761 17.5188 27.5761 17.5188C29.9761 17.5188 31.8761 19.5188 31.8761 21.8188C31.8761 24.1188 29.9761 26.1188 27.5761 26.1188Z" fill="#ED3237"/>
</svg>
