<svg width="54" height="54" viewBox="0 0 54 54" fill="none" xmlns="http://www.w3.org/2000/svg">
<path d="M18.9152 38.1253C29.3152 38.1253 37.7152 29.6253 37.7152 19.3253C37.8152 8.92529 29.3152 0.425293 18.9152 0.425293C8.51523 0.425293 0.115234 8.92529 0.115234 19.2253C0.115234 29.6253 8.61523 38.1253 18.9152 38.1253ZM2.41523 19.2253C2.41523 10.1253 9.81523 2.62529 19.0152 2.62529C28.1152 2.62529 35.6152 10.0253 35.6152 19.2253C35.6152 28.3253 28.2152 35.8253 19.0152 35.8253C9.81523 35.8253 2.41523 28.4253 2.41523 19.2253Z" fill="#ED3237"/>
<path d="M51.1152 3.12529V0.425293H48.8152V3.12529H46.2152V5.32529H48.8152V8.02529H51.1152V5.32529H53.7152V3.12529H51.1152Z" fill="#ED3237"/>
<path d="M42.6153 20.4252H44.9153V17.7252H47.5153V15.5252H44.9153V12.8252H42.6153V15.5252H40.0153V17.7252H42.6153V20.4252Z" fill="#ED3237"/>
<path d="M6.81522 36.7253H4.51522V39.4253H1.91522V41.6253H4.51522V44.3253H6.81522V41.6253H9.51522V39.4253H6.81522V36.7253Z" fill="#ED3237"/>
<path d="M53.0153 27.1253C52.7153 27.0253 52.4153 27.0253 52.2153 27.1253L43.3153 30.6253C42.7153 30.8253 42.4153 31.5253 42.7153 32.1253C42.8153 32.2253 42.8153 32.4253 43.0153 32.5253L44.9153 34.4253L40.3153 39.0253L35.7153 34.4253C35.3153 34.0253 34.6153 34.0253 34.1153 34.4253L14.5153 52.2253L16.0153 53.9253L34.9153 36.7253L39.4153 41.2253C39.6153 41.4253 39.9153 41.5253 40.2153 41.5253C40.5153 41.5253 40.8153 41.4253 41.0153 41.2253L46.4153 35.8253L48.3153 37.7253C48.6153 38.0253 49.0153 38.1253 49.3153 38.0253C49.7153 37.9253 50.0153 37.7253 50.1153 37.3253L53.6153 28.4253C53.9153 27.9253 53.6153 27.3253 53.0153 27.1253ZM50.6153 30.1253L48.7153 34.9253L45.8153 32.0253L50.6153 30.1253Z" fill="#ED3237"/>
<path d="M17.8153 31.0253V34.5253H20.1153V31.0253C23.0153 30.9253 25.4153 28.4253 25.4153 25.4253V23.6253C25.4153 20.5253 22.9153 18.0253 19.8153 18.0253H18.1153C16.3153 18.0253 14.8153 16.5253 14.8153 14.7253V12.9253C14.8153 11.1253 16.3153 9.62529 18.1153 9.62529H19.9153C21.7153 9.62529 23.2153 11.1253 23.2153 12.9253V13.1253H25.5153V12.8253C25.5153 9.82529 23.1153 7.42529 20.2153 7.22529V3.92529H17.9153V7.42529C15.0153 7.52529 12.6153 10.0253 12.6153 13.0253V14.8253C12.6153 17.9253 15.1153 20.4253 18.2153 20.4253H20.0153C21.8153 20.4253 23.3153 21.9253 23.3153 23.7253V25.4253C23.3153 27.2253 21.8153 28.7253 20.0153 28.7253H18.1153C16.3153 28.7253 14.8153 27.2253 14.8153 25.4253V25.2253H12.5153V25.4253C12.5153 28.4253 14.9153 30.9253 17.8153 31.0253Z" fill="#ED3237"/>
</svg>
